<svg xmlns="http://www.w3.org/2000/svg" viewBox="0 0 1669.57 1391.09"><defs><style>.cls-1{fill:#024924;}</style></defs><g id="Layer_2" data-name="Layer 2"><g id="Layer_1-2" data-name="Layer 1"><path class="cls-1" d="M132.75,980.61q-4.17,0-11.19-5.47a57,57,0,0,1-13-13.8q-9.36-11.72-19.26-16.14-3.39-1.56-32.28-18-5.2-9.88-5.2-13.8,0-4.16,4.68-9.63A123.92,123.92,0,0,1,70.8,896q5-3.9,25-11.45L99.18,883l-1.05-1A60.8,60.8,0,0,1,88,869.46a57.07,57.07,0,0,0-10.41-12.24L60.13,883a29.4,29.4,0,0,1-10.41,2.34,53.9,53.9,0,0,1-13.8-2.09A81.52,81.52,0,0,1,17.7,870q-8.59-5.73-8.59-13.54a5.09,5.09,0,0,1,1-3.64q4.69,0,8.33,4.43,2.6,3.39,9.89,3.38l5.21-.26a45.13,45.13,0,0,0,13.54-15.62l1.3-2.08a14.33,14.33,0,0,0-9.63-3.12H5.73c-3.3-2.42-5.12-4.77-5.47-7L0,828.84l.26-3.65a6.81,6.81,0,0,0,.26-2.08q5.73-4.43,15.62-4.42,8.85.25,25,.26l15.1-.26q3.38,0,6.24.27H86.68q7.29-.53,14.32-.53l10.41.27,1.31.26,13.79-.26q21.35,0,28.63,2.08c1.91,3.82,2.87,7,2.87,9.63,0,4.34-.7,6.82-2.08,7.42s-3.91.95-7.55,1-5.91.91-6.77,2.47l-1.3,1.3a52.57,52.57,0,0,0,2.08,5.21q3.38,7.81,3.38,12.76a24.86,24.86,0,0,1-1,6.76,100.29,100.29,0,0,1-7,7.81l-3.9,30.2a108.74,108.74,0,0,0-1.31,18.22,79,79,0,0,1,.78,11.19,98.88,98.88,0,0,1-.78,12.24,133.94,133.94,0,0,0,4.68,33.05A23,23,0,0,1,132.75,980.61Zm-21.86-36.19a5,5,0,0,0,2.6-.78,126.68,126.68,0,0,0,2.86-26.81l-.26-8.85q0-1-2.08-4.43a20,20,0,0,0-10.54,2.61,68.36,68.36,0,0,0-7.81,5.46c-2.34,1.92-4.64,3.64-6.9,5.21A9.26,9.26,0,0,1,85.38,921a1.86,1.86,0,0,0-1,1.82,8.16,8.16,0,0,0,.77,3.13q6.26,5.46,16.93,13.27c2.77,2.44,4.42,3.69,4.94,3.78a5.31,5.31,0,0,1,1.82.78A3.87,3.87,0,0,0,110.89,944.42Zm-2.6-82.78q9.38,0,13.8-8.58v-1.83a16.5,16.5,0,0,0,.52-3.9,8.44,8.44,0,0,0-1.83-5.73l-3.38-.78a27.53,27.53,0,0,0-7.55-1L107,840c-3.48-.34-6.94-.52-10.42-.52q-12,0-12,4.94a8.66,8.66,0,0,0,.78,3.39q4.94,7.54,14.58,12A20.51,20.51,0,0,0,108.29,861.64Z"/><path class="cls-1" d="M200.69,980.61a16.36,16.36,0,0,1-9-4.3,42.74,42.74,0,0,1-6.38-8.46v-3.64l.52-12.23q.78-5,1.3-22.65V908.77q0-7.82.53-15.88l.26-5.47q0-27.58-24.21-46.08a77.83,77.83,0,0,1-1.3-14.58q0-5.19,1-6.24,9.1,4.68,12.62,9.24a61.36,61.36,0,0,1,5.6,8.46,33.36,33.36,0,0,0,6.77,8.33,24.74,24.74,0,0,0,2.6-11.19l-.26-2.86,1.3-27.34a38.8,38.8,0,0,0,1.05-6.51c1.73-1.91,3.47-2.86,5.2-2.86s3.47.87,5.21,2.6a105.15,105.15,0,0,0,2.34,14.32q5.21,5.2,17.44,5.21a51.18,51.18,0,0,1,9.37.78v3.65a47.08,47.08,0,0,1-1.3,11.45,5.76,5.76,0,0,1-2.6.52H227a32.62,32.62,0,0,0-7,1.69,63.23,63.23,0,0,0-9.63,3.78q-3.92,2.87-3.91,12.49l.26,6.77L208,960.57c-.18,3.82-.26,9.28-.27,16.39Z"/><path class="cls-1" d="M346.19,980.87a9.52,9.52,0,0,1-4.29-1.3,8.23,8.23,0,0,1-3.51-3.12l-3.65-7.55q-7-12.75-26.28-22.39l-8.86-5.46a51.76,51.76,0,0,0-14.31-8.59q-15.37-5.46-24-15.89a38.63,38.63,0,0,0-2.86-6.76c-2.78-4.52-4.17-8.24-4.17-11.19a15.27,15.27,0,0,1,.52-3.65,45.79,45.79,0,0,1,14.84-15.1,52.83,52.83,0,0,0,4.95-3.64,37.46,37.46,0,0,0-8.2-3.91,34.22,34.22,0,0,1-8.2-4,16.17,16.17,0,0,1-5.73-7.68,32,32,0,0,1-2.08-12q0-28.89,21.35-37a48.32,48.32,0,0,1,13.53-1.56c2.09,0,4.9.17,8.46.52s8.29,2.78,14.19,7.29a21.77,21.77,0,0,1,4.94,14.32l-.25,3.65q-4.44,12.75-20.31,14.83C284,849.5,277.91,845.61,274.1,839c-2.26.53-3.38,1.74-3.38,3.65v13q7.54,12.24,19.26,12.23,12.75,0,40.09-18.48a247.56,247.56,0,0,1,1.56-31.24l3.12-.26c3.13.18,7.2.26,12.24.26h14.83c2.43,6.61,3.65,10.42,3.65,11.46q0,5.46-5.21,10.15l-4.94-.26h-5.47a2,2,0,0,0-2.08,1.3q-.78,4.68-.79,56.49.52,29.14.52,58a73.7,73.7,0,0,0-.52,8.06,21.42,21.42,0,0,0,.78,6.51,53.2,53.2,0,0,1,.78,7.81,11.25,11.25,0,0,1-.26,2.61A4.73,4.73,0,0,1,346.19,980.87Zm-22.38-39.82c1.21-.87,2.08-2.6,2.6-5.21a113.8,113.8,0,0,0,3.91-29.67q0-16.65-1.82-16.66a16.61,16.61,0,0,0-4.43,1.3,77.27,77.27,0,0,1-8.72,4.16,73.3,73.3,0,0,0-13.66,7.82c-3.3,2.42-6.77,4.86-10.42,7.28l-4.68,2.86Q310.27,931.16,323.81,941.05Z"/><path class="cls-1" d="M393.83,980.36q-3.91,0-11.2-7.29a13.41,13.41,0,0,1-3.9-9.89V947.56q0-27.07,2.09-54.15,1.56-22.9,1.56-40.6a96.87,96.87,0,0,0-.78-12.5l-6.77.26a67.16,67.16,0,0,1-8.85-.52q-15.09,0-16.92-.52a14.6,14.6,0,0,1-2.73-7.16q-.65-4.54-1.69-12.11-.25-12-13-13a173.61,173.61,0,0,1-28.37-2.6q-21.35-3.37-29.67-22.91c-2.08-4.51-3.13-7.46-3.13-8.85l.27-2.87q4.15-21.35,27.07-26a31.82,31.82,0,0,1,7-.77,37.69,37.69,0,0,1,9.63,1.3q28.89,8.33,44.25,22.39,22.13,16.67,37,46.59a23.46,23.46,0,0,0,3.9,6l4.95.78,4.95-.26,7.8.26a13.67,13.67,0,0,1,2.61,8.6q0,8.05-3.65,9.89-2.61,1.29-8.59,1.55l-3.9.53q-2.34,19-2.35,28.63l.78,95q0,13-5,15.09A8.47,8.47,0,0,1,393.83,980.36ZM377.44,820.27l-1.3-3.39q-5.47-16.9-27.59-35.66-7.82-9.37-22.39-15.1-9.63-2.08-16.4-3.9a49.43,49.43,0,0,0-8.59-.78q-7.55,0-10.15,2.6-5.73,5.73-5.73,12a6.57,6.57,0,0,0,2.34,4.82,10.24,10.24,0,0,0,4.95,2.73l7-1a55.88,55.88,0,0,1,14.32-2.08,34.29,34.29,0,0,1,12.23,2.08q24,5.22,33.84,29.68a34.68,34.68,0,0,1,1.82,8.06Z"/><path class="cls-1" d="M533.87,980.37a23.31,23.31,0,0,1-7.29-.79,21.43,21.43,0,0,1-6.51-13.27,115.73,115.73,0,0,1-3.51-19.79,35,35,0,0,0-6.64-17.95A92.36,92.36,0,0,0,490.4,904.1q-3.9.76-4.69,3.89-2.86,14.07-12.49,17.71-12.5,5.46-19.26,5.47-14.06,0-21.61-14.84-3.9-6.78-3.9-16.67,4.43-22.89,32-31.23a30.38,30.38,0,0,1,7.81-1q10.41,0,19.26,7.29a45.79,45.79,0,0,1,14.84,15.1,74.5,74.5,0,0,0,9.89,13.53c.17.18.61.26,1.3.26a1.06,1.06,0,0,1,.78-.26.45.45,0,0,0,.52-.51q4.15-19,4.17-43.48,0-13.27-1.56-19.52L500,839.54l-65.6.77Q423,839.8,423,833v-1.31a63.85,63.85,0,0,1-.52-7.28,9.85,9.85,0,0,1,.52-3.91q27.84-.78,57.53-.78,29.93,0,62,.79,6.76,3.9,6.77,10.41a17.52,17.52,0,0,1-1.31,6.25,33.85,33.85,0,0,0-9.11,5.21l-.52,14.05q0,35.67-2.34,54.93-1.05,10.92-1.05,21.08a167.8,167.8,0,0,0,1.31,18,187.74,187.74,0,0,1,2.34,27.85Q534.9,980.37,533.87,980.37Z"/><path class="cls-1" d="M749.92,981.42h-2.34q-8.6-4.42-8.85-13.8a22.18,22.18,0,0,0-2.86-11.71,5.84,5.84,0,0,0-5.21-2.87,60.15,60.15,0,0,0-9.11,1.31q-20.06,2.86-37,6.76a70,70,0,0,1-15.88,1.82q-21.35,0-31.5-10.93a19.06,19.06,0,0,0-3.38-3.13A35,35,0,0,1,623.16,934q-1.83-5.71-5.47-20.3a63.56,63.56,0,0,1-1.56-14.32,68.26,68.26,0,0,1,2.6-19.26q1.57-9.37,7.55-9.37c4.17,0,6.25,2.17,6.25,6.51l-.26.78a26.21,26.21,0,0,1-.26,4.43,30.29,30.29,0,0,0-2.86,12.75,14.86,14.86,0,0,0,.25,2.86,12.83,12.83,0,0,1,.27,2.6l-.27,2.09a30,30,0,0,0,7.81,19.26q6.25,9.12,18,12,20,3.13,25.77,3.13a80.44,80.44,0,0,0,18-2.08,50.51,50.51,0,0,1,7-.52,38.64,38.64,0,0,1,8.07.78,52,52,0,0,0,9.63,2.6,2.58,2.58,0,0,1,1.31.53,33,33,0,0,0,4.68.78c1.91,0,3.12-.61,3.64-1.82a83.2,83.2,0,0,0,2.87-21.09c0-6.77.09-14,.26-21.61q0-7.8-.26-9.63-.78-9.89-.78-24.46a53.16,53.16,0,0,0,1.31-11.72q0-12.75-3.91-12.75c-1.39,0-3.12.69-5.21,2.08l-15.09,9.63a43.28,43.28,0,0,0-18,20.3,5,5,0,0,0,2.48,2.08,7.9,7.9,0,0,0,2.73.53A9.88,9.88,0,0,1,702,871q12.5,2.36,16.14,14.59a23.76,23.76,0,0,1,1.82,9.1q0,12-11.19,18.75a20.31,20.31,0,0,1-10.68,3.38q-3.12,0-13.79-2.35a25.4,25.4,0,0,1-13.41-7.68,22.65,22.65,0,0,1-6.63-13.4q-.52-6-.52-11.71t.52-11.46a47.39,47.39,0,0,1,8.46-19.91,93.65,93.65,0,0,1,12.36-14.45q19-17.17,34.11-17.17a55,55,0,0,1,14.31,1.82,24,24,0,0,1,15.36,10.67q6,10.15,6,32.8,0,25.77.52,37.22l-.26,20.57a21.26,21.26,0,0,0,.26,4.16q0,26.29,2.6,37.48a55.1,55.1,0,0,1,1,7.55q0,6.25-6.25,9.89A7.58,7.58,0,0,1,749.92,981.42Z"/><path class="cls-1" d="M794.18,838.78h-4.95a223.59,223.59,0,0,1-22.38-1l-.52-5.2q0-10.68,2.08-12.24a3.59,3.59,0,0,1,2.34-.52l2.87.26,10.41-.26q8.06,0,16.66.52,12.75-.51,24.47-.52l16.4.27c-.88,12.14-1.65,18.21-2.35,18.21l-9.37-.26Q816.57,838,794.18,838.78Zm-2.61,73.4A17.91,17.91,0,0,1,780.12,908q-6.24-6.24-6.25-12.75a49.27,49.27,0,0,1,2.87-15.36q1.56-4.15,9.11-11.71,5.71-5.73,18.74-5.73,16.92,0,27.85,14.06a77,77,0,0,0,6.51,6.76l7.55,8.59-4.17,10.68q-11.7-10.41-18.22-17.18-4.17-3.64-5.46-3.64a1.06,1.06,0,0,0-.78.25,20.92,20.92,0,0,0-3.65,8.85q-1.56,13.27-14.06,19.52A22.4,22.4,0,0,1,791.57,912.18Z"/><path class="cls-1" d="M860.81,980.38a11.19,11.19,0,0,1-8.07-3.64A46.25,46.25,0,0,1,837.39,945q-.78-13-3.12-100.74a14.75,14.75,0,0,0-6-9.63,12.9,12.9,0,0,1-1-5.72q0-6,3.9-8.6,12.24-.78,33.58-.78l21.35.53,11.45-.26L909,820c1.9-.52,2.86-1.39,2.86-2.6a6.28,6.28,0,0,0-1.56-3.39,56.21,56.21,0,0,0-22.91-5.21l-4.69.27a120.46,120.46,0,0,1-31.23-3.91q-16.4-3.39-24.73-13a35.18,35.18,0,0,1-4.16-15.62,92.11,92.11,0,0,1,1.82-17.44q0-1.56,2.08-5,3.38-6.49,8.59-6.5t5.21,4.69v1.55q-5.47,8.34-5.47,15.36a16.9,16.9,0,0,0,2.08,8.07q3.12,6.25,8.07,6.25l18.22-1.82,5-.26q9.63,0,25.25,6.77,7.54,3.65,16.92,7.55l4.68,2.86q13.53,14.32,13.54,26,0,11.46-1.83,15.1L891,839.56q-11.7.53-19.26.65a131.1,131.1,0,0,0-13.8.91q-2.6,7.29-2.6,44,.51,26.55,2.6,52.84v3.13q0,3.12.26,6a25.52,25.52,0,0,0,3.38,5.73q5.48-7.54,11.72-15.1,6.5-10.4,13-23.16a54,54,0,0,1-7.54-1.82q-11.73-4.17-11.72-16.41a44.22,44.22,0,0,1,2.87-14.57,17,17,0,0,1,9.24-9.76,47.53,47.53,0,0,1,15.49-3.78Q907.94,869,917,883a38.72,38.72,0,0,1,6,20,48.32,48.32,0,0,1-2.09,13.8,90.41,90.41,0,0,1-26.29,43.73,71.38,71.38,0,0,1-13.15,9.63q-6.9,3.91-13.4,7.81A14.38,14.38,0,0,1,860.81,980.38Z"/><path class="cls-1" d="M972.48,980.65a16.39,16.39,0,0,1-9-4.3,43.13,43.13,0,0,1-6.38-8.46v-3.64l.53-12.23q.78-4.95,1.3-22.65V908.81q0-7.81.52-15.88l.26-5.47q0-27.59-24.21-46.08a77.83,77.83,0,0,1-1.3-14.58c0-3.46.35-5.54,1-6.24q9.11,4.68,12.62,9.24a62.14,62.14,0,0,1,5.59,8.46,33.58,33.58,0,0,0,6.77,8.33,24.75,24.75,0,0,0,2.61-11.19l-.26-2.86,1.3-27.34a39.85,39.85,0,0,0,1-6.51q2.59-2.87,5.21-2.86a7.5,7.5,0,0,1,5.2,2.6,106.73,106.73,0,0,0,2.34,14.32q5.2,5.21,17.45,5.21a51.18,51.18,0,0,1,9.37.78v3.65a47.07,47.07,0,0,1-1.31,11.45,5.73,5.73,0,0,1-2.6.52h-1.82a32.62,32.62,0,0,0-7,1.69,63.23,63.23,0,0,0-9.63,3.78q-3.92,2.86-3.91,12.49l.26,6.77,1.3,101.52q-.27,5.73-.26,16.39Z"/><path class="cls-1" d="M1092.74,980.4q-7,0-9.63-15.37-3.12-19.26-19.79-28.89a143.21,143.21,0,0,1-12.75-8.07,74.15,74.15,0,0,0-17.7-11.46,45.52,45.52,0,0,1-18.74-19.26,14.38,14.38,0,0,1-1.56-6.51,18.33,18.33,0,0,1,1-5.72,39.71,39.71,0,0,1,13.67-12.63q8.45-4.8,15.88-9.63a85.71,85.71,0,0,1,16.27-8.19q5.19-2.61,10.8-5.34a48.78,48.78,0,0,1,12.62-4q-.25-3.12-.26-6.76a107.38,107.38,0,0,0-16.66-1.3,101.89,101.89,0,0,0-14.57,1,241.27,241.27,0,0,1-26,1.3h-8.07q-4.69-1.05-4.69-8.08a42.18,42.18,0,0,1,.39-4.94q.39-3.12,4.56-6.25,26.3-.78,51.54-.78,20,0,39.3.53a21.87,21.87,0,0,1,.53,17.44,20.68,20.68,0,0,1-8.86,2.08,253.5,253.5,0,0,0-1.56,26.81l.26,8.85v32l-.52,39a117.25,117.25,0,0,0,2.86,25.25v1.57Q1101.07,980.4,1092.74,980.4Zm-46.6-10.16h-.78a19.61,19.61,0,0,1-10.67-3.12q-6.76-6.25-6.77-11.46c0-3.47,2.17-6.41,6.51-8.85a18.4,18.4,0,0,1,7.81-1.82,16.78,16.78,0,0,1,9.37,3.12,13.57,13.57,0,0,1,5.47,10.94,19.31,19.31,0,0,1-.53,4.16Q1054,970.24,1046.14,970.24Zm31.76-43.47q1-4.42,1.31-6.51v-6a136.31,136.31,0,0,1,3.38-30.45,23.61,23.61,0,0,0-1-6.25l-3.39.26q-3.65,0-29.15,16.4c-2.6.52-4.25,2.26-4.94,5.2q1.29,3.14,26.55,24.22A28.06,28.06,0,0,0,1077.9,926.77Z"/><path class="cls-1" d="M1260.12,980.67h-1a18.72,18.72,0,0,1-6-1h-.27l-1-.78c-2.08-1.21-3.12-3.91-3.12-8.07s.52-7.29,1.57-9.37c-.18-3.47-1.22-5.46-3.13-6a50.47,50.47,0,0,0-12.24-1.56,90.34,90.34,0,0,0-9.89.78q-16.14.78-29.15,2.61a95,95,0,0,0-12,1.29h-4.43q-37.23-1.29-48.16-31.5l-.52-.26c-.52-2.25-1.12-4.42-1.82-6.51q-3.9-6-3.9-17.43a3.56,3.56,0,0,1-.26-1.57,6.31,6.31,0,0,1-.52-2.34v-.78a52.42,52.42,0,0,0,1-7,60.84,60.84,0,0,1,4.17-15.88,8.62,8.62,0,0,1,3.38-.78c2.43,0,4.51,1.39,6.25,4.17l.26,3.38a28,28,0,0,1-.26,3.9,38.84,38.84,0,0,0-.52,17.71c.34.17.52.34.52.52a36.68,36.68,0,0,0,6.76,18.22c.69.69,2.22,2.26,4.56,4.68a13.28,13.28,0,0,0,8.46,4.17l6.51.26a105.78,105.78,0,0,0,19.78-1.82,48.09,48.09,0,0,1,9.89-1l12,.26q24.2,0,33,10.41a11.28,11.28,0,0,0,3.26,2.34,33,33,0,0,1,5.59,4.17l-.26-18.74.27-6.77a68.37,68.37,0,0,1,1-8.85l.26-3.12q0-10.66-2.6-28.89a31.23,31.23,0,0,0-7.55-15.1l-1.56-.53c-1.22,0-2.44.79-3.65,2.34q-25,22.14-37.22,35.41a44.68,44.68,0,0,1-6.51,6.25,72.05,72.05,0,0,1-19-5.21L1162,898.92a41.31,41.31,0,0,0-.52-6.51q8.34-6,15.88-12a6.24,6.24,0,0,1,.39-1.69,8.66,8.66,0,0,0,.39-2.74,18.09,18.09,0,0,0-.52-4.42V870a23.73,23.73,0,0,0-7.54-1.3l-4.69.26q-7.81,4.93-9.37,7.55-6.26-.79-8.85-3.13l-3.91-3.65c.17-7.45.69-12.23,1.56-14.31q3.39-12.24,14.58-22.9,15.36-14.84,38.79-14.84l5.47.26a29,29,0,0,1,18.22,6.25,8.07,8.07,0,0,0,2.08,1.56,45,45,0,0,1,13.28,14.06,78.21,78.21,0,0,0,8.59,12l3.12,5.21h1.3q1-3.39,1-32.54V801.83q3.39-2.34,5.47-2.34a7.8,7.8,0,0,1,7.29,4.17,35.63,35.63,0,0,1,.52,6.24V812a10.53,10.53,0,0,0,2.08,6.78l8.59,1.55,6,2.87v12.76a8.5,8.5,0,0,1-6.77,5.33q-4.95.91-7,2.73a23.9,23.9,0,0,0-1,7.55v4.17c.34,5.38.69,8.42,1,9.1q.51,7.56.52,16.67t-.52,20l-.26,7v3.64q0,53.1-.53,60.39v2.87C1264.36,978.58,1262.2,980.32,1260.12,980.67Zm-67.68-115.06c.17,0,.43-.27.78-.79q13.53-11.45,27.07-22.12-1.3-4.43-4.68-4.43h-.78q-7.29-2.34-10.93-2.34a27.72,27.72,0,0,0-8.85,1.82,59.4,59.4,0,0,1-7,3.9,46.51,46.51,0,0,0-10.42,6.51q10.68,16.92,13.8,16.92A1.46,1.46,0,0,0,1192.44,865.61Z"/><path class="cls-1" d="M1323.63,980.67a16.43,16.43,0,0,1-9-4.3,43.13,43.13,0,0,1-6.38-8.46v-3.64l.52-12.24q.78-4.93,1.3-22.65V908.82c0-5.2.17-10.5.53-15.87l.26-5.47q0-27.59-24.21-46.08a77,77,0,0,1-1.3-14.58q0-5.19,1-6.25,9.1,4.7,12.63,9.25a61.53,61.53,0,0,1,5.59,8.46,33.54,33.54,0,0,0,6.77,8.33,24.75,24.75,0,0,0,2.6-11.2l-.26-2.85,1.31-27.34a40,40,0,0,0,1-6.51c1.73-1.91,3.47-2.86,5.2-2.86s3.47.87,5.21,2.6a105.15,105.15,0,0,0,2.34,14.32q5.21,5.21,17.44,5.2a51.13,51.13,0,0,1,9.37.79v3.64a47.17,47.17,0,0,1-1.3,11.46,5.73,5.73,0,0,1-2.6.52h-1.83a32.59,32.59,0,0,0-7,1.69,64.9,64.9,0,0,0-9.64,3.77q-3.9,2.86-3.9,12.5l.26,6.76,1.3,101.52q-.27,5.75-.26,16.4Z"/><path class="cls-1" d="M1474.08,980.42a8.45,8.45,0,0,1-6.51-2.87q-1-1.29-7.42-4.82t-15-8.72a136.58,136.58,0,0,0-14.06-7.29q-50.24-24.21-52.32-29.67a74.6,74.6,0,0,1-4.42-24.47q0-9.63,4.69-9.63a17.22,17.22,0,0,1,7.8,5.2q4.95,5.73,14.84,5.73h12.5a62.88,62.88,0,0,0,30.19-7.55,22.48,22.48,0,0,0,12.76-18.21q0-9.37-11.46-9.38-6.24,0-11.45,5.21a53,53,0,0,1-19.79,13.27,26.23,26.23,0,0,1-11.45,2.6q-14.58,0-20-12.23a11.05,11.05,0,0,1-1.3-5q0-6.51,14.84-17.44a32.49,32.49,0,0,1,15.61-5.72c3.3,0,5.3-1.73,6-5.21,0-3.47-2.69-5.21-8.06-5.21-4,.36-8.07.53-12.24.53q-10.68,0-19.78.51-10.68-.26-13.28-.52a32.65,32.65,0,0,1-1-8.85q0-12,3.38-12l4.17.26q9.88,0,12,.26,50.23,0,59.35-.25,9.11.26,24.73.25a19.06,19.06,0,0,0,.79-3.9,4.65,4.65,0,0,0-1.31-2.86,22.25,22.25,0,0,0-18.74-9.38q-8.07-.78-16.66-.78l-4.43-.26-8.32.26a62.32,62.32,0,0,1-31.5-8.33,27.21,27.21,0,0,1-10.67-10.15,41.93,41.93,0,0,1-6.77-22.91,25,25,0,0,1,4-14.32,12.41,12.41,0,0,1,10.8-6q7.54,0,7.55,3.13c0,2.77-1.92,5.8-5.73,9.1s-5.73,5.9-5.73,7.81v3.38a13.58,13.58,0,0,0,10.41,8.6q14.33,3.38,46.34,4.94a13.4,13.4,0,0,1,5.46,1q15.89,5.75,26,16.14a40.78,40.78,0,0,1,12,20.31l1.56,5.46a1.69,1.69,0,0,1,1,.79.82.82,0,0,0,.78.52q3.12,6,3.39,7.81a16.1,16.1,0,0,1-1.31,5.46c-1.21,3.13-3,4.69-5.2,4.69q-2.61.52-33.32.52-7.29,0-8.07,3a20.2,20.2,0,0,0-.78,4q0,3.39,8.33,4.42,16.9,2.61,24.2,18.22a31,31,0,0,1,4.17,15.1,32,32,0,0,1-4.17,15.1q-9.11,17.44-27.33,27.85-7.82,2.86-10.41,4.17a5.7,5.7,0,0,0-2.61,4.94c0,3.12,1.83,5.12,5.47,6q18.23,8.58,29.68,16.66l5.2,2.6a20.74,20.74,0,0,1,9.11,9.38,12.21,12.21,0,0,1,.52,3.38Q1481.11,979.38,1474.08,980.42Z"/><path class="cls-1" d="M1627.66,980.69h-.52c-1.39,0-3.56-.88-6.51-2.61a98.34,98.34,0,0,1-1.82-18.74l.52-24.47q1.31-13.8,3.65-26.29a41.11,41.11,0,0,1,6.38-9.37,19.67,19.67,0,0,0,4.81-9.89,10.4,10.4,0,0,0-3.38-2.09,36.12,36.12,0,0,1-6,.52,30.57,30.57,0,0,1-13.92-3.64q-7.17-3.65-15.49-8.08a40.26,40.26,0,0,1-9-11.06,106,106,0,0,0-6.9-10.8q-3.65,1-23.17,14.84-5,7.56-5.21,14.83a24.18,24.18,0,0,0,5.21,14.58,46.11,46.11,0,0,0,19.52-8.59c3.47-3.46,9.29-5.21,17.44-5.21a54.14,54.14,0,0,1,17.7,22.13,50.06,50.06,0,0,1,3.13,16.66,59.18,59.18,0,0,1-1.31,9.9,28.84,28.84,0,0,1-4.16,10.93A48.5,48.5,0,0,1,1582.89,964a55.17,55.17,0,0,1-15.36,2.34q-20.31,0-34.62-18a91.38,91.38,0,0,1-13.8-26.82,186.14,186.14,0,0,1-9.88-55.18,33.3,33.3,0,0,1,.52-6l1.56-2.6q7.55,0,8.85,6.51a164,164,0,0,1,4.68,18.74,154.65,154.65,0,0,0,13,42.69,37.31,37.31,0,0,0,14.83,13q8.07,2.87,13,2.86a32.73,32.73,0,0,0,9.63-1.82q18.48-5.73,25.25-21.87a3.41,3.41,0,0,0,.78-2.08q0-2.6-4.42-4.68a31.55,31.55,0,0,0-13.41,6.89,21.23,21.23,0,0,1-13.93,5.34q-13.26,0-26.55-14.06-13.8-20.82-13.79-36.44a38.61,38.61,0,0,1,1.3-9.89q1-2.34,3.52-7.68a14.82,14.82,0,0,1,8.46-7.68q3.9-2.6,3.9-4.16,0-2.09-14-2.09l-6.77.26q-13,0-26-.78a17,17,0,0,1-3.39-10.67,28,28,0,0,1,1.57-8.85q2.34-2.08,24.46-2.09l14.84.27,48.16.26q32,0,63.25-.52a25,25,0,0,1,5-.51,26.69,26.69,0,0,1,12.49,3.12,17.44,17.44,0,0,1,3.64,9.11v.26q0,4.43-6,7.29a184.46,184.46,0,0,1-27.59,2.08c-3.3,0-6.86-.17-10.68-.53q-15.36,1-30.71,1.57a11.5,11.5,0,0,0-4.69,2.08q0,2.61,7,6.77a87.77,87.77,0,0,0,34.88,15.1c5,0,9-.79,12-2.34q8.6,1,12,6.89a63.9,63.9,0,0,1,4.94,10.29,30.25,30.25,0,0,1-8.85,21.86,118.41,118.41,0,0,0-13,16.92,46,46,0,0,0-7,21.08l-.53,9.38c0,3.81,1,8.59,3.13,14.31a22.25,22.25,0,0,1,1,7q0,4.17-1,6Q1629.74,980.69,1627.66,980.69Z"/><path class="cls-1" d="M247.37,674.56a2.07,2.07,0,0,1-1.13-.32,53,53,0,0,0-6.44-2.72c-1.26-.42-2.52-.88-3.78-1.39-1.06-.41-2.15-.81-3.29-1.19a34.2,34.2,0,0,1-4.79-1.71,15.66,15.66,0,0,1-4.67-8.64c.12-.76.42-1.14.88-1.14a1,1,0,0,1,.6.13,3.53,3.53,0,0,0,.35.25,10,10,0,0,0,4.79,4.16,5.67,5.67,0,0,0,2.34.51,5.84,5.84,0,0,0,1.45-.19,13.32,13.32,0,0,0,5.62-3.22.25.25,0,0,0,.06-.19,3.15,3.15,0,0,0,.88-1.89,2.33,2.33,0,0,0-.75-1.45.85.85,0,0,1-.35-.13,1.9,1.9,0,0,0-.54-.19,9.81,9.81,0,0,0-1,.06h-.31l-3.54,3.16a3.69,3.69,0,0,1-2.46.76,10.28,10.28,0,0,1-2.52-.38q-2.34-1-2.34-4,0-2.58,3-4.42a23,23,0,0,1,3.6-2v-.19l-1-1.45a13.55,13.55,0,0,0-2.53-3L225.29,650a7.1,7.1,0,0,1-2.53.57,13,13,0,0,1-3.34-.51,19.44,19.44,0,0,1-4.42-3.22,3.92,3.92,0,0,1-2.08-3.28,1.23,1.23,0,0,1,.25-.88,2.59,2.59,0,0,1,2,1.07,2.88,2.88,0,0,0,2.4.82l1.26-.06a10.94,10.94,0,0,0,3.28-3.78l.32-.51a3.5,3.5,0,0,0-2.34-.76h-8a2.93,2.93,0,0,1-1.33-1.7l-.06-.88.06-.89a1.62,1.62,0,0,0,.07-.5,6,6,0,0,1,3.78-1.07q2.15.06,6.06.06l3.66-.06a14.51,14.51,0,0,1,1.52.06h5.86c1.18-.08,2.34-.13,3.48-.13l2.52.07.32.06,3.66-.06c3.66,0,5.87.16,6.62.5a8.86,8.86,0,0,1,.57,1.29,8.52,8.52,0,0,1,.13,1.87c-.05.72-.55,1.13-1.52,1.25h-1.58a1,1,0,0,0-.88.57l-.32.32q.19.57.51,1.26a8.25,8.25,0,0,1,.82,3.09,5.84,5.84,0,0,1-.25,1.64l-.63.83a26.83,26.83,0,0,0-1.9,2.08c-.08.3-1,1.09-2.71,2.4l1.89,1.7a6.32,6.32,0,0,1,3.54,5.87l-.07.76a10.49,10.49,0,0,1-4,6.25,16.38,16.38,0,0,0-1.38,1.13,1.49,1.49,0,0,0-.13.57,1.14,1.14,0,0,0,.31.75,9.28,9.28,0,0,0,2.66,1.33,29,29,0,0,1,3.78,1.93,4.55,4.55,0,0,1,1.07,1.8l.07.12C248.26,674.28,248,674.56,247.37,674.56ZM237,644.83a3.55,3.55,0,0,0,3.35-2.08v-.44a4.19,4.19,0,0,0,.12-.95A2.05,2.05,0,0,0,240,640l-.82-.19a6.57,6.57,0,0,0-1.83-.25l-.69.06a24,24,0,0,0-2.53-.13c-1.93,0-2.9.41-2.9,1.21a2,2,0,0,0,.19.81,8.23,8.23,0,0,0,3.53,2.91A5.12,5.12,0,0,0,237,644.83Z"/><path class="cls-1" d="M259.36,673.67a4,4,0,0,1-2.17-1,10.52,10.52,0,0,1-1.55-2v-.88l.13-3c.12-.8.23-2.63.31-5.49v-5c0-1.26,0-2.54.13-3.85l.06-1.32q0-6.69-5.87-11.18a18.7,18.7,0,0,1-.31-3.53c0-.84.08-1.34.25-1.51a9.07,9.07,0,0,1,3.06,2.24,14.76,14.76,0,0,1,1.36,2,8,8,0,0,0,1.64,2,6,6,0,0,0,.63-2.71l-.06-.7.31-6.62a10,10,0,0,0,.26-1.58,1.53,1.53,0,0,1,2.52-.06,24,24,0,0,0,.57,3.46c.84.84,2.25,1.27,4.23,1.27a12.1,12.1,0,0,1,2.27.19v.88a11.53,11.53,0,0,1-.32,2.78,1.48,1.48,0,0,1-.63.12h-.44a8.16,8.16,0,0,0-1.7.41,15.44,15.44,0,0,0-2.34.92c-.63.46-.95,1.47-.95,3l.07,1.64.31,24.61c0,.92-.06,2.25-.06,4Z"/><path class="cls-1" d="M279.24,673.61H279a2.32,2.32,0,0,1-1.7-.51c-.93-.55-1.88-2-2.84-4.23l-.57-4.47-.06-1.46q.81-10.29.82-11.67V640.92l-.25-1a4.81,4.81,0,0,0-2.47-.64h-.44a4.12,4.12,0,0,1-2.65-.75,6.71,6.71,0,0,1-.38-2.08,4.21,4.21,0,0,1,.32-1.64,9.26,9.26,0,0,1,3-.51,8.2,8.2,0,0,1,1.77.19c.51,0,.76-.17.76-.38q0-.57-3.41-4.42a4.77,4.77,0,0,1-.12-1.13,4.43,4.43,0,0,1,1.51-3.41,54.5,54.5,0,0,1,5.3-5.11q4.8-3.85,12.24-3.85a13.08,13.08,0,0,1,4.48.75c4.26,2.19,7.28,4.4,9.09,6.63,1.47,1.86,2.21,3.1,2.21,3.73a.5.5,0,0,1-.13.38.88.88,0,0,1-.75.5,4.13,4.13,0,0,1-2.46-1.51q-5.31-5.31-9.41-5.3h-.19c-1.17.29-2.37.54-3.59.75a12.44,12.44,0,0,0-6.75,3.34l-2.66,2.85a7.94,7.94,0,0,0-2.08,4.41,4.87,4.87,0,0,0,3.66,1.52h.51a11.88,11.88,0,0,1,3.09.57,4,4,0,0,1,.31,1.57,4.83,4.83,0,0,1-.82,2.53,7.33,7.33,0,0,1-2.21.57q-1.06.06-1.95.18a1.72,1.72,0,0,0-.35.45,1.23,1.23,0,0,1-.22.31c-.3,2.61-.46,5.94-.51,10q0,4.23-.12,9.47.12,4.23.57,8.46.06,1.83.06,3.72A5.24,5.24,0,0,1,279.24,673.61Z"/><path class="cls-1" d="M317.36,673.48a12.37,12.37,0,0,1-2.18-.25c-.9-.16-1.75-1.16-2.55-3-.17-1-.25-4.45-.25-10.42v-8.52a5.72,5.72,0,0,0-2-4.29,21.83,21.83,0,0,0-6.63,3.75l-5.87,5a5,5,0,0,1-1.38.19,4.69,4.69,0,0,1-2.53-.79,3.24,3.24,0,0,1-1.45-2.55l3.16-4,.06-.51a.59.59,0,0,0-.13-.44c-.59-1.43-1.39-2.15-2.4-2.15a3.2,3.2,0,0,0-1.57.51l-2,1.13a2.72,2.72,0,0,1-2.27-2.83,31.81,31.81,0,0,1,.63-3.54c.67-.8,1.3-1.6,1.89-2.39a9,9,0,0,1,8.08-4.11,27.93,27.93,0,0,1,6.63,1.14,18,18,0,0,1,5.87,5,13.2,13.2,0,0,1,1.89,2.58c.42-.13.65-.33.69-.63a15.48,15.48,0,0,0,.19-2.78q0-2.77-.25-7a6.46,6.46,0,0,1,.63-1.14,5.62,5.62,0,0,1,1.26.63c.59.72,1.12,1.41,1.58,2.09a16.83,16.83,0,0,0,2.4.44,2.39,2.39,0,0,1,2.46,2.59l-.19,1.32a8.72,8.72,0,0,1-3.28,1.26,21.54,21.54,0,0,0-.44,4v11.36c0,.59-.07,1.22-.07,1.89a61.58,61.58,0,0,0,1.14,11.23,11.44,11.44,0,0,1,.13,1.64,8.55,8.55,0,0,1-.76,3.54Zm-18.81-26.69a25.48,25.48,0,0,0,7.2-5.74c-.63-.93-1.87-1.4-3.72-1.4a25.89,25.89,0,0,0-5.43,1,1.29,1.29,0,0,0-1.07,1.26C296.49,643.5,297.5,645.15,298.55,646.79Z"/><path class="cls-1" d="M358.32,639.66c-1.26-.08-2.48-.13-3.66-.13l-14,.06s-4.88-.06-14.64-.06a4.8,4.8,0,0,1-2-.31c-.67-.38-1-1.43-1-3.16,0-1,.4-1.58,1.2-1.58l4.42-.06a4.27,4.27,0,0,1,1.07.07H348q9.21,0,10.16.12c2.23,0,3.35.68,3.35,2a12.89,12.89,0,0,1-.2,2.33C361.28,639.43,360.3,639.66,358.32,639.66ZM345.51,672q-6.31,0-12.56-8.83a14.58,14.58,0,0,1-1.83-2.53,9.68,9.68,0,0,1-1.64-2.65c-.38-.92-.78-1.83-1.2-2.71a93.42,93.42,0,0,1-3.66-9.41,5.38,5.38,0,0,1-.38-2c0-.92.25-1.41.76-1.44a1,1,0,0,1,.82.4,4.07,4.07,0,0,1,.5.83c.13.27.3.59.51,1a97.13,97.13,0,0,1,4.67,8.83,64.41,64.41,0,0,0,5.36,7.76,12.53,12.53,0,0,0,3.63,2.94,10,10,0,0,0,4.2,1.48,9.26,9.26,0,0,0,6.12-2.15,12.66,12.66,0,0,0,3-3A7.8,7.8,0,0,0,355.6,656c0-3.4-1.15-5.1-3.47-5.1a3.56,3.56,0,0,0-.94.12,3.15,3.15,0,0,0-.38,1.83l.06.38a4.8,4.8,0,0,1-3,4.67,5.59,5.59,0,0,1-2.59.38,10.08,10.08,0,0,1-6.5-2.34,4.66,4.66,0,0,1-1.64-3.54,18.62,18.62,0,0,1,.19-2,7.81,7.81,0,0,1,1.13-3.06,24.91,24.91,0,0,1,2.21-3.1,5.33,5.33,0,0,1,3-1.25l2-.07a10.34,10.34,0,0,1,6.88,2.34,16.56,16.56,0,0,1,6.12,8.58,16.29,16.29,0,0,1,.82,5,15.19,15.19,0,0,1-1.9,7.31,9.46,9.46,0,0,1-7.13,5.37,3.25,3.25,0,0,0-.88.19A21.71,21.71,0,0,1,345.51,672Z"/><path class="cls-1" d="M1357.22,681.72a4.08,4.08,0,0,1-1-.25q-2.78-2.15-7.5-6.37l-10.36-7a7.22,7.22,0,0,0-1.64-1,3.7,3.7,0,0,1-2.4-3.72,14.72,14.72,0,0,1,.26-2.46,1.05,1.05,0,0,1,.82-.44,2.64,2.64,0,0,1,1.14.19,28.73,28.73,0,0,0,5.3.5c.71,0,1.43,0,2.14-.09s1.45-.1,2.21-.1a5.7,5.7,0,0,0,4-2,11.77,11.77,0,0,0,.19-2,5.26,5.26,0,0,0-.32-1.77,3.38,3.38,0,0,0-1.7-1.64,19.09,19.09,0,0,0-6.31-2.46,7.62,7.62,0,0,1-4.36-2.21,5.35,5.35,0,0,1-.69-2.59,3.79,3.79,0,0,1,1.83-3.47,4.37,4.37,0,0,1,2.27-.69,3.64,3.64,0,0,1,2.78,1.13,18.39,18.39,0,0,0,4.23,3.16,9.25,9.25,0,0,1,1.51,1,24.59,24.59,0,0,1,2.59,3.31,11.43,11.43,0,0,1,1.7,5.93q0,5.12-3.66,7.39a21.24,21.24,0,0,0-4.16,3.47l.06.12a53.25,53.25,0,0,1,6.31,4.23,12.38,12.38,0,0,0,1.26,1,23,23,0,0,1,5.12,5.62l.06.76A2.24,2.24,0,0,1,1357.22,681.72Z"/><path class="cls-1" d="M1375.64,679.83a11.36,11.36,0,0,1-6.94-2.14q-6-5.62-6-15.21,0-9,5.42-14.64,4.42-4.23,9.22-4.23a13.56,13.56,0,0,1,6.12,1.58q8.46,5.29,9.15,14.45-.19,9.47-5.56,15.14A15.19,15.19,0,0,1,1375.64,679.83Zm.13-5.36a8.66,8.66,0,0,0,6.12-2.78,11.24,11.24,0,0,0,3.72-6.18,35.24,35.24,0,0,0,.63-6.69l.07-3q-.88-4.49-3.79-6a5.1,5.1,0,0,0-2.27-.56,6.57,6.57,0,0,0-3.91,1.51,18.78,18.78,0,0,0-7.64,13.19,21.59,21.59,0,0,0-.13,2.27,23.13,23.13,0,0,0,.35,3.63,5.53,5.53,0,0,0,2.93,3.69A9.27,9.27,0,0,0,1375.77,674.47Z"/><path class="cls-1" d="M1420.45,681.73a4.57,4.57,0,0,1-1-.25q-2.78-2.15-7.51-6.38l-10.35-7a7.11,7.11,0,0,0-1.64-1,4.89,4.89,0,0,1-2.21-2.28,4.81,4.81,0,0,1-.19-1.45,14.58,14.58,0,0,1,.25-2.46,1.12,1.12,0,0,1,.83-.44,2.56,2.56,0,0,1,1.13.19,28,28,0,0,0,5.3.5c.72,0,1.43,0,2.15-.09s1.45-.09,2.21-.09a5.76,5.76,0,0,0,4-2,13,13,0,0,0,.19-2,5.26,5.26,0,0,0-.32-1.77,3.4,3.4,0,0,0-1.71-1.64,19,19,0,0,0-6.31-2.46,7.6,7.6,0,0,1-4.35-2.21,5.32,5.32,0,0,1-.69-2.59,3.83,3.83,0,0,1,1.82-3.47,4.37,4.37,0,0,1,2.28-.69,3.68,3.68,0,0,1,2.78,1.13,18,18,0,0,0,4.22,3.16,10,10,0,0,1,1.52,1,25.33,25.33,0,0,1,2.59,3.31,11.46,11.46,0,0,1,1.7,5.94q0,5.12-3.66,7.38a21.59,21.59,0,0,0-4.17,3.47l.07.13a51.63,51.63,0,0,1,6.31,4.23,14.29,14.29,0,0,0,1.26,1,23.15,23.15,0,0,1,5.11,5.61l.06.76A2.25,2.25,0,0,1,1420.45,681.73Z"/><path class="cls-1" d="M1447.59,679a7,7,0,0,1-2.47-.44,26.7,26.7,0,0,1-12.24-9.21,55.27,55.27,0,0,1-3.91-6.44,20.11,20.11,0,0,1-3.09-10.66v-.83a1.77,1.77,0,0,1,1.2-.63,1.63,1.63,0,0,1,.82.35,1.59,1.59,0,0,1,.63.72,67.28,67.28,0,0,1,3,6.25,32.76,32.76,0,0,0,6.18,9.72,11.07,11.07,0,0,0,9.28,4.42,17.94,17.94,0,0,0,3.6-.38,20.78,20.78,0,0,0,4-2.84c1.6-1.81,2.4-4.56,2.4-8.27a24.49,24.49,0,0,0-.29-3.63,10.25,10.25,0,0,0-2-4.35,7.13,7.13,0,0,0-4.83-2.93,8.61,8.61,0,0,1,1,3.78,7.64,7.64,0,0,1-1.14,3.92,4.35,4.35,0,0,1-1.85,2.14,22.7,22.7,0,0,1-4.39,1.58,5.4,5.4,0,0,1-4-2.81,9.73,9.73,0,0,1-1.33-4.83,10.36,10.36,0,0,1,.32-2.52,11.51,11.51,0,0,1,6.37-5.68,10.08,10.08,0,0,1,3.41-.69q2.71,0,6.44,3a19.93,19.93,0,0,1,4.73,5c1.48,1.56,2.21,4.5,2.21,8.83a27.88,27.88,0,0,1-1.32,8.46,14.38,14.38,0,0,1-11.81,9Z"/><path class="cls-1" d="M730,1153.83h-.4a2.87,2.87,0,0,1-.8-.8,10.54,10.54,0,0,1-.64-2.89q-2.4-11.46-8.25-15.62a2.16,2.16,0,0,0-1.44-.56,2.37,2.37,0,0,0-2.25,1.44,11.25,11.25,0,0,1-1.68,2.4,4.76,4.76,0,0,1-2.81,1.36,10.27,10.27,0,0,1-2.24.57,3,3,0,0,1-1.12-.17,11.88,11.88,0,0,1-6.17-5.6,5.42,5.42,0,0,1-.56-2.49,6.17,6.17,0,0,1,1.52-4.41,11.33,11.33,0,0,0,1.2-1.2q2.64-2.64,5.21-2.64l3.85.24a1.24,1.24,0,0,0,1.2-1.36l-.08-.57a8.77,8.77,0,0,0-4.17-3.68l-1.2-.4c-1.5-.59-3.05-1.12-4.65-1.61a4.82,4.82,0,0,1-3.36-2.56,12.27,12.27,0,0,1-1.28-5.45,15.14,15.14,0,0,1,.08-1.68,2.15,2.15,0,0,1,1.92-1.92h1.52q8,0,18.83.24l5.05-.08a15.38,15.38,0,0,1,1.84.08,10.11,10.11,0,0,1,1.85-.16,3.67,3.67,0,0,1,2.32.84,3.72,3.72,0,0,1,.64,2.53v3a6.81,6.81,0,0,1-1.68,1.28,3,3,0,0,0-1.2,2.48v6a62.18,62.18,0,0,0,.48,7.7,19.58,19.58,0,0,1,.24,3.2v4.81c0,4.49.08,7.45.24,8.9l.24,1.36a7.8,7.8,0,0,0,.08,1.6c0,1.07.08,2.16.08,3.28s-.2,1.9-.6,2.17A3.3,3.3,0,0,1,730,1153.83Zm-5.37-22.12a6.12,6.12,0,0,0,.56-.44,1.41,1.41,0,0,0,.33-.92c.21-1.6.48-3.2.8-4.81v-1.44c-.32-4.65-.48-7.26-.48-7.85a9.26,9.26,0,0,0-1.2-4.57,12,12,0,0,0-2.33-.24,10.23,10.23,0,0,0-1.52.12c-.54.08-1.1.15-1.68.2a14.45,14.45,0,0,1-2.09-.16,16,16,0,0,0-2.32-.16l-1.2.08a2,2,0,0,0,.16.48.71.71,0,0,0,.12.2.21.21,0,0,1,0,.12,1.69,1.69,0,0,1,.48.56,16.81,16.81,0,0,1,5.69,12.9,8.53,8.53,0,0,0,1.36,4.17c.37.8.8,1.27,1.28,1.4A12.91,12.91,0,0,0,724.67,1131.71Z"/><path class="cls-1" d="M765.14,1153.83a11,11,0,0,1-1.44-1.6,33.28,33.28,0,0,1-1.61-4.73q-1.76-7.93-8.81-10.42-2.16-.8-4.33-1.8a17.92,17.92,0,0,0-4.48-1.4,9.4,9.4,0,0,1-2.65-1.29,6.78,6.78,0,0,1-4.25-5.92,7.4,7.4,0,0,1,2.49-3.93q3-2.81,6.41-6.25a10,10,0,0,0-4.45-2.25,11.76,11.76,0,0,1-4.2-1.68,9.39,9.39,0,0,1-1.85-5.45,8.8,8.8,0,0,1,.49-2.88,15.72,15.72,0,0,1,3-.32h27.32a16.45,16.45,0,0,1,2.81.56,10.11,10.11,0,0,1,.48,3,10.73,10.73,0,0,1-.24,2.24,9.6,9.6,0,0,0-3.37.72,4.72,4.72,0,0,0-.4.88q-.24,18.36-.24,24.12a30.86,30.86,0,0,0,.4,4.81,42.74,42.74,0,0,0,1.44,8,7.15,7.15,0,0,1,.32,2.16l-.08.89C767.94,1152.79,767,1153.62,765.14,1153.83Zm-13.62-5.13h-.24a7.14,7.14,0,0,1-3.77-1.12q-2.57-1.77-2.56-3.93,0-1.76,2.16-3.12a6.39,6.39,0,0,1,2.88-.72,5.81,5.81,0,0,1,3.13,1,4.57,4.57,0,0,1,2.16,3.85,5.16,5.16,0,0,1-.16,1.28A4,4,0,0,1,751.52,1148.7Zm8.89-12.1a35.33,35.33,0,0,0,.4-5.36c0-.86,0-1.7-.08-2.53s-.08-1.59-.08-2.29a27.57,27.57,0,0,1,.56-5.52v-10.18a5.08,5.08,0,0,0-1.28-.56l-4.89.08c-2.45,0-4.94,0-7.45-.16-.11,0-.27.18-.48.56a19,19,0,0,0,4.45,4.65q2.52,1.85,4.93,3.68a6.44,6.44,0,0,1,.24,1.69,4.84,4.84,0,0,1-1.21,3.2,28.29,28.29,0,0,0-6.41,4.41,28.2,28.2,0,0,0,5.69,3.84A50.66,50.66,0,0,1,760.41,1136.6Z"/><path class="cls-1" d="M802.56,1153.83h-.4a2.63,2.63,0,0,1-.8-.8,10.45,10.45,0,0,1-.64-2.88q-2.41-11.46-8.26-15.63A2.16,2.16,0,0,0,791,1134a2.36,2.36,0,0,0-2.24,1.44,11.71,11.71,0,0,1-1.69,2.4,4.74,4.74,0,0,1-2.8,1.37,10.79,10.79,0,0,1-2.24.56,3.08,3.08,0,0,1-1.13-.16,11.88,11.88,0,0,1-6.16-5.61,5.43,5.43,0,0,1-.57-2.49,6.12,6.12,0,0,1,1.53-4.4q.63-.57,1.2-1.2,2.64-2.65,5.21-2.65l3.84.24a1.23,1.23,0,0,0,1.2-1.36l-.07-.56a8.94,8.94,0,0,0-4.17-3.69l-1.2-.4q-2.25-.89-4.65-1.6a4.82,4.82,0,0,1-3.37-2.56,12.44,12.44,0,0,1-1.28-5.45c0-.59,0-1.15.08-1.69a2.16,2.16,0,0,1,1.92-1.92H776q8,0,18.83.24l5.05-.08a15.38,15.38,0,0,1,1.84.08,11,11,0,0,1,1.84-.16,3.7,3.7,0,0,1,2.33.84,3.8,3.8,0,0,1,.64,2.53v3a6.43,6.43,0,0,1-1.69,1.28,3.07,3.07,0,0,0-1.2,2.49v6a62,62,0,0,0,.48,7.69,19.58,19.58,0,0,1,.24,3.2v4.82c0,4.48.08,7.45.24,8.89l.24,1.36a8.61,8.61,0,0,0,.08,1.6c.06,1.07.08,2.17.08,3.29s-.2,1.9-.6,2.16A3.24,3.24,0,0,1,802.56,1153.83Zm-5.37-22.12c.21-.15.4-.3.56-.43a1.44,1.44,0,0,0,.32-.92c.21-1.61.48-3.21.8-4.81v-1.45q-.48-7-.48-7.85a9.32,9.32,0,0,0-1.2-4.57,11.8,11.8,0,0,0-2.32-.24,9.09,9.09,0,0,0-1.52.13l-1.69.2a14.41,14.41,0,0,1-2.08-.17,17.48,17.48,0,0,0-2.32-.16l-1.21.08a2.91,2.91,0,0,0,.16.48.73.73,0,0,0,.13.2.21.21,0,0,1,0,.12,1.51,1.51,0,0,1,.48.57,16.76,16.76,0,0,1,5.69,12.9,8.47,8.47,0,0,0,1.37,4.16,2.32,2.32,0,0,0,1.28,1.41A14.48,14.48,0,0,0,797.19,1131.71Z"/><path class="cls-1" d="M843,1153.83a7.58,7.58,0,0,1-2.24-.23,6.6,6.6,0,0,1-2-4.09,35.3,35.3,0,0,1-1.09-6.09,10.69,10.69,0,0,0-2-5.53,28.15,28.15,0,0,0-6-7.53,1.63,1.63,0,0,0-1.44,1.2c-.59,2.88-1.87,4.7-3.85,5.44a16.19,16.19,0,0,1-5.93,1.69q-4.32,0-6.65-4.57a10.14,10.14,0,0,1-1.2-5.13q1.36-7,9.86-9.61a9.43,9.43,0,0,1,2.4-.32,9.15,9.15,0,0,1,5.93,2.24,14.11,14.11,0,0,1,4.57,4.65,22.53,22.53,0,0,0,3,4.16.6.6,0,0,0,.4.09.38.38,0,0,1,.25-.09.14.14,0,0,0,.16-.15,63.24,63.24,0,0,0,1.28-13.38,27,27,0,0,0-.48-6l-5.37-.09-20.19.24c-2.36-.11-3.53-.85-3.53-2.24v-.4a19.28,19.28,0,0,1-.16-2.25,3,3,0,0,1,.16-1.2q8.58-.24,17.71-.24t19.07.24a3.63,3.63,0,0,1,2.08,3.21,5.28,5.28,0,0,1-.4,1.92,10.23,10.23,0,0,0-2.8,1.61l-.16,4.32a150,150,0,0,1-.72,16.91c-.22,2.25-.32,4.41-.32,6.49a50,50,0,0,0,.4,5.53,57.82,57.82,0,0,1,.71,8.58A4.35,4.35,0,0,1,843,1153.83Z"/><path class="cls-1" d="M863,1153.84h-.32a3,3,0,0,1-2.16-.64c-1.17-.7-2.38-2.49-3.61-5.37l-.72-5.69-.08-1.85c.7-8.7,1-13.65,1-14.82v-13.14l-.32-1.29a6.1,6.1,0,0,0-3.13-.8h-.56a5.25,5.25,0,0,1-3.36-1,8.41,8.41,0,0,1-.48-2.64,5.37,5.37,0,0,1,.4-2.09,12,12,0,0,1,3.76-.64,11.47,11.47,0,0,1,2.25.24q1-.08,1-.48c0-.48-1.45-2.35-4.33-5.61a7.06,7.06,0,0,1-.16-1.44,5.66,5.66,0,0,1,1.92-4.33,72.66,72.66,0,0,1,6.74-6.49q6.07-4.87,15.54-4.88a16.54,16.54,0,0,1,5.69,1q8.1,4.17,11.54,8.41c1.87,2.36,2.8,3.93,2.8,4.73a.63.63,0,0,1-.16.48,1.12,1.12,0,0,1-1,.64c-.8,0-1.84-.64-3.13-1.92q-6.72-6.73-11.93-6.73H880q-2.24.55-4.56,1a15.82,15.82,0,0,0-8.57,4.24l-3.37,3.61a10.09,10.09,0,0,0-2.64,5.61,6.14,6.14,0,0,0,4.64,1.92h.64a15.12,15.12,0,0,1,3.93.72,5.15,5.15,0,0,1,.4,2,6.15,6.15,0,0,1-1,3.2,9.15,9.15,0,0,1-2.81.73c-.91,0-1.73.13-2.48.24a2.35,2.35,0,0,0-.44.56,1.5,1.5,0,0,1-.28.4,125.72,125.72,0,0,0-.64,12.66q0,5.37-.17,12,.16,5.37.72,10.74c.06,1.55.09,3.12.09,4.72A6.61,6.61,0,0,1,863,1153.84Z"/><path class="cls-1" d="M905.29,1153.84a1.84,1.84,0,0,1-.56-.08q-3.53-1.6-4-3.61-.56-4.56-.68-7.37t-.2-8.25a14.75,14.75,0,0,1-.16-2.73v-.4a7.35,7.35,0,0,0-3.61-6.81h-.16a2.54,2.54,0,0,0-2.24,1.2,42.46,42.46,0,0,0-3.13,4.73,30,30,0,0,1-4,5.37,4.7,4.7,0,0,1-3.45,1.12,9.46,9.46,0,0,1-8.17-4.41,10.1,10.1,0,0,1-2.56-6.49c0-1.71.47-2.56,1.44-2.56a1.76,1.76,0,0,1,1.28,1.36,1.1,1.1,0,0,0,.16.64,2.46,2.46,0,0,0,.24,1.12c.91,1.44,1.76,2.17,2.56,2.17a2.81,2.81,0,0,0,.72-.13c.32-.07,1-.92,1.93-2.52l1.84-2.48a4.54,4.54,0,0,0,1-3,3.54,3.54,0,0,0-.64-2c-1.33-3.31-3.18-5.39-5.53-6.25a1,1,0,0,1-.72-.24,6.2,6.2,0,0,0-1.84-.56,10.17,10.17,0,0,1-1.44-.72c-1.12-.54-1.69-1.71-1.69-3.53a3.73,3.73,0,0,1,.16-1.12v-.4a2,2,0,0,1,1.85-1.68l8.89-.17,1.53.09h10.49q3.61.08,14.5.08a6.57,6.57,0,0,1,1,4.08,13.79,13.79,0,0,1-.16,1.93,4.5,4.5,0,0,0-1.85.64.36.36,0,0,0-.24.08,2,2,0,0,0-1.6,2.08v1.53l.16,3.76a19.76,19.76,0,0,1-.16,2.8q0,8.82-.08,13l.16,2.48v4.33a61.4,61.4,0,0,0,.4,7.69,14.86,14.86,0,0,1,.4,2.8C907.13,1153,906.51,1153.84,905.29,1153.84Zm-5.45-32.77a1.29,1.29,0,0,0,.72-.57c.11-3.26.16-5.6.16-7q0-2.88-2.16-3.12c-.75-.06-4.09-.11-10-.17a1.18,1.18,0,0,0-1,.45,1.37,1.37,0,0,0-.32.76,1.23,1.23,0,0,0,.16.56,54,54,0,0,1,1.28,5.45l.64,1.6a1.26,1.26,0,0,1,.56-.32l1.21-.56a6.22,6.22,0,0,1,2.72-.8,7.36,7.36,0,0,1,1,.12,5.88,5.88,0,0,1,2.32,1.72,2.67,2.67,0,0,1,.49.64,18.78,18.78,0,0,0,1.6,1.2l.4.09Z"/><path class="cls-1" d="M923.32,1123.47a13.23,13.23,0,0,1-5.53-1.12,7.23,7.23,0,0,1-4.25-6.9v-.72a9.54,9.54,0,0,1,5.21-8.81,12.69,12.69,0,0,1,4.73-1,11.55,11.55,0,0,1,6.41,2,7.39,7.39,0,0,1,3.6,6.57,9.63,9.63,0,0,1-.88,3.93Q930,1123.47,923.32,1123.47Zm12.26,30.37a1.08,1.08,0,0,1-.89-.4v-.24l-.08.24a1.72,1.72,0,0,1-.48-.48,45.56,45.56,0,0,0-13.06-14,6.46,6.46,0,0,0-1.2-1q-4.49-3.29-4.49-7a1.84,1.84,0,0,1,.8-1.6,4.42,4.42,0,0,1,.73-.72,1.31,1.31,0,0,1,.8.24,2.4,2.4,0,0,1,1.36.48,6.4,6.4,0,0,0,1,.72q2.64,2.25,5.21,4.65,2.56,2.64,5,5.37l2.64,2.8a21.38,21.38,0,0,1,4.41,7,7.08,7.08,0,0,1,.16,1.45l-.08,1c-.06,0-.08.16-.08.32A1.61,1.61,0,0,1,935.58,1153.84Zm-15.07-34.62a2.7,2.7,0,0,0,.88-.16,13.25,13.25,0,0,0,6.73-5.69,2.54,2.54,0,0,0,.24-.72v-.56c-.32-1.17-1.25-1.76-2.8-1.76a5.55,5.55,0,0,0-4.81,2.72,10.32,10.32,0,0,0-1.6,4.49C919.15,1118.66,919.6,1119.22,920.51,1119.22Z"/><path class="cls-1" d="M970.27,1153.84a2.66,2.66,0,0,1-1.92-.88,7.72,7.72,0,0,0-2-1.48q-1.81-1.08-4.37-2.69a38.38,38.38,0,0,0-4-2.24q-4.65-2.4-9.22-5-2.16-1.27-4.48-2.49a3.48,3.48,0,0,1-1.36-1.6,27.34,27.34,0,0,1-1.2-7.69c0-1.39.13-2.19.4-2.4a.47.47,0,0,1,.32-.32,1.58,1.58,0,0,1,.56-.08,1.89,1.89,0,0,1,.72.4,5.29,5.29,0,0,1,1.6,1.2,4,4,0,0,0,2.24,1.6,11.07,11.07,0,0,0,2,.16H953a17.54,17.54,0,0,0,8.82-2.32,6.78,6.78,0,0,0,3.6-5.61v-.24a2.45,2.45,0,0,0-.56-1.48,2.14,2.14,0,0,0-1.32-.92,6.66,6.66,0,0,0-1.4-.17,4.53,4.53,0,0,0-3.21,1.53,15.23,15.23,0,0,1-5.77,4.09,7.28,7.28,0,0,1-3.28.8,5.55,5.55,0,0,1-5.69-3.77,3.54,3.54,0,0,1-.4-1.6c0-1.34,1.41-3.1,4.25-5.29a8.88,8.88,0,0,1,4.48-1.77h.08c1,0,1.5-.53,1.61-1.6a2,2,0,0,0-.16-.64c-.32-.64-1-1-2.17-1-1.39.11-5.23.16-11.54.16H939a12.81,12.81,0,0,1-.32-2.73v-1.32a7.71,7.71,0,0,1,.2-1.64c.13-.59.41-.88.84-.88h.08a2.56,2.56,0,0,0,1,.16H941c1.77,0,2.84,0,3.21.08q1.44.08,8.49.08l8.42-.08,2.64.08a8,8,0,0,0,1.6.16l1.53-.08c.64,0,1.79-.08,3.44-.08a4.08,4.08,0,0,1,2.73.72s0,.08.08.08a6.91,6.91,0,0,1,1,2.65,6.18,6.18,0,0,1-.32,1.68,2.39,2.39,0,0,1-1.32,1.2,9,9,0,0,1-2,.16h-7.85c-1.34,0-2.08.32-2.24,1a6.69,6.69,0,0,0-.24,1.29.55.55,0,0,0,.4.55,4.09,4.09,0,0,0,2,.72,8.64,8.64,0,0,1,6.89,5.62,9.59,9.59,0,0,1,0,9.29,20.09,20.09,0,0,1-7.77,8.58l-.81.23a15.44,15.44,0,0,0-2.24,1,1.85,1.85,0,0,0-.72,1.53c0,1,.72,1.71,2.16,2.08a7.37,7.37,0,0,1,2.81,1.53,57.47,57.47,0,0,1,5.05,3.36l1.52.8a6,6,0,0,1,2.64,2.89,2.49,2.49,0,0,1,.24,1C972.35,1153.28,971.66,1153.84,970.27,1153.84Z"/><path class="cls-1" d="M836.89,1391.09c-232.59,0-448.81-115.57-578.37-309.12l13.11-8.77c126.63,189.16,337.94,302.1,565.26,302.11A679.9,679.9,0,0,0,1399,1077.92l13,8.88A695.64,695.64,0,0,1,836.89,1391.09Z"/><path class="cls-1" d="M1532.47,695.58H1516.7c0-374.83-304.91-679.78-679.74-679.8s-679.78,304.9-679.8,679.73H141.38C141.4,312,453.44,0,837,0S1532.49,312.05,1532.47,695.58Z"/><path class="cls-1" d="M170,703H128.54a7.89,7.89,0,0,1,0-15.78H170A7.89,7.89,0,1,1,170,703Z"/><path class="cls-1" d="M1545.32,703.07h-41.47a7.89,7.89,0,1,1,0-15.78h41.47a7.89,7.89,0,1,1,0,15.78Z"/><path class="cls-1" d="M287.93,1081.9H243a7.89,7.89,0,1,1,0-15.78h44.93a7.89,7.89,0,0,1,0,15.78Z"/><path class="cls-1" d="M1428,1087.58h-44.93a7.89,7.89,0,0,1,0-15.78H1428a7.89,7.89,0,1,1,0,15.77Z"/><rect class="cls-1" x="402.03" y="1077.17" width="34.21" height="3.94"/><rect class="cls-1" x="261.82" y="583.17" width="34.21" height="3.94"/><rect class="cls-1" x="468.07" y="243.61" width="3.94" height="34.21" transform="translate(-60.83 344.89) rotate(-38.03)"/><rect class="cls-1" x="1183.56" y="261.09" width="34.21" height="3.95" transform="translate(222.02 1006.75) rotate(-49.59)"/><rect class="cls-1" x="1233.89" y="1077.21" width="34.21" height="3.94"/><rect class="cls-1" x="1371.37" y="583.22" width="34.21" height="3.94"/><path class="cls-1" d="M835.29,1263.1a570.7,570.7,0,0,1-417.61-182.62l2.9-2.68a564.93,564.93,0,0,0,829,.55l2.89,2.68A570.73,570.73,0,0,1,835.29,1263.1Z"/><path class="cls-1" d="M1389.73,585.32c-24.24-124.17-90.89-238.08-187.65-320.75l2.56-3c97.44,83.25,164.55,198,189,323Z"/><path class="cls-1" d="M280.86,585.52l-3.87-.76c24.64-126.41,92.76-242,191.78-325.55l2.55,3C373,345.17,305.33,460,280.86,585.52Z"/><path class="cls-1" d="M535.9,245.83l-.21.14a2.32,2.32,0,0,1-1.7.51c-1.07.06-2.64-.6-4.7-2l-2.94-3.43-.85-1.18q-5-9-5.75-10.19l-5.7-8.64-.76-.7a4.74,4.74,0,0,0-2.41.82l-.37.25a4.17,4.17,0,0,1-2.62.83,6.78,6.78,0,0,1-1.47-1.54,4.14,4.14,0,0,1-.64-1.54,9.22,9.22,0,0,1,2.2-2,8.16,8.16,0,0,1,1.58-.82c.4-.31.54-.55.42-.73s-2-.92-5.27-1.81a4.73,4.73,0,0,1-.74-.88,4.47,4.47,0,0,1-.61-3.68,58,58,0,0,1,1.61-7.18q1.89-5.87,8.1-10a13.23,13.23,0,0,1,4.16-1.84q7.13-.76,11.23.53,3.38,1.09,3.9,1.89a.49.49,0,0,1,.1.38.9.9,0,0,1-.35.84,4.1,4.1,0,0,1-2.89.1q-7.35-1.52-10.77.75l-.16.1c-.82.9-1.68,1.77-2.59,2.62a12.5,12.5,0,0,0-3.79,6.51l-.65,3.83a8,8,0,0,0,.7,4.83,4.86,4.86,0,0,0,3.89-.75l.42-.28a11.56,11.56,0,0,1,2.89-1.22,4,4,0,0,1,1.13,1.14,4.82,4.82,0,0,1,.71,2.55,6.93,6.93,0,0,1-1.53,1.69c-.58.44-1.08.85-1.53,1.24a2,2,0,0,0-.05.56,1,1,0,0,1,0,.38q1.79,3.51,5.07,8.61,2.32,3.52,5.11,8,2.43,3.45,5.13,6.75c.71,1,1.41,2,2.11,3.07A5.21,5.21,0,0,1,535.9,245.83Z"/><path class="cls-1" d="M564.24,228.31a5.84,5.84,0,0,1-1.61.74,5.17,5.17,0,0,1-3-2,27.6,27.6,0,0,1-3.2-3.68,8.48,8.48,0,0,0-3.62-2.9,22.7,22.7,0,0,0-7.11-2.66,1.3,1.3,0,0,0-.49,1.4c.78,2.19.64,3.93-.39,5.24a12.72,12.72,0,0,1-3.32,3.53q-2.93,1.75-6.34-.39a7.87,7.87,0,0,1-2.89-3q-1.93-5.32,2.76-10.49a7.34,7.34,0,0,1,1.5-1.19,7.24,7.24,0,0,1,4.91-.89,11.2,11.2,0,0,1,5,1.29,17.35,17.35,0,0,0,3.74,1.58c.06,0,.16,0,.3-.1a.32.32,0,0,1,.13-.16.1.1,0,0,0,0-.16,48.84,48.84,0,0,0-4.56-9.57,21.6,21.6,0,0,0-2.75-3.86l-3.66,2.12-13.54,8.34c-1.64.88-2.73.85-3.3-.09l-.16-.27a13.7,13.7,0,0,1-1-1.45,2.34,2.34,0,0,1-.38-.87q5.68-3.65,11.86-7.34t13-7.56a2.84,2.84,0,0,1,2.7,1.32,4.4,4.4,0,0,1,.52,1.46,8.2,8.2,0,0,0-1.25,2.22l1.64,3a118.17,118.17,0,0,1,6.37,11.71q1.14,2.4,2.41,4.51a38.14,38.14,0,0,0,2.51,3.58,45.52,45.52,0,0,1,4,5.5A3.78,3.78,0,0,1,564.24,228.31Z"/><path class="cls-1" d="M585,179.06a9.89,9.89,0,0,1-1.21.55,27.72,27.72,0,0,0-2.64,1.21l-2.28,1.24L576,183.53l-4.36,2.15c-.63.33-1.22.65-1.76,1l-1.29.66q-3.44,1.76-4.78,2.31c-1,.66-2.09,1.28-3.17,1.84a53.19,53.19,0,0,1-5.15,2.28c-1,.35-1.62.62-2,.8a1.58,1.58,0,0,1-1.45-.74l-1-1.91a1.55,1.55,0,0,1,.44-1.22,4.83,4.83,0,0,0,1.09-.77c.79-.5,1.6-1,2.42-1.38l18.29-9.3,7.91-4a7.56,7.56,0,0,1,3.86-1.06c.54.06,1.11.64,1.68,1.77l.75,1.59A17.86,17.86,0,0,1,585,179.06Zm4,33.78a30.77,30.77,0,0,1-3,1.32,15.92,15.92,0,0,1-6.43,0,25.93,25.93,0,0,1-8.67-3.5,29.56,29.56,0,0,1-8.65-6.63c-.55-.53-1.16-1.06-1.82-1.62a11.62,11.62,0,0,1-1.23-1.15,23.69,23.69,0,0,1-1.91-1.93,1.55,1.55,0,0,1,.73-.94l.25-.05c.25,0,.38,0,.4.08q4.64,3.51,9,7c.91.58,1.87,1.12,2.89,1.64l3.06,1,.46.19a11.86,11.86,0,0,0,8.82-.76,15.42,15.42,0,0,0,3.24-2.27,23.93,23.93,0,0,0,2.78-2.87l.72-1.37.75-1.72a7.19,7.19,0,0,0-.34-5.65,8.11,8.11,0,0,0-1.09-1.57,1.54,1.54,0,0,0-1.52-.07,4.72,4.72,0,0,0-.84.58,10.72,10.72,0,0,1-2.67,4.76,34.84,34.84,0,0,1-4.14,3.68c-.37.29-.72.58-1,.86a5.62,5.62,0,0,1-1.1.75,6.93,6.93,0,0,1-4.23.6q-3.76-.41-6.49-5.18a7.6,7.6,0,0,1,.69-4.75,7.23,7.23,0,0,1,3.22-3.13l.44-.24c1.91-1,4.12-.1,6.61,2.65a5.44,5.44,0,0,0,1-.38,2.19,2.19,0,0,0,.75-.67,3.45,3.45,0,0,0,.58-1.15,7.65,7.65,0,0,1,.44-1.08l1.32-4.21a1.63,1.63,0,0,0,.51-.05,4.25,4.25,0,0,1,.74-.07,3.14,3.14,0,0,1,.59.1,23.61,23.61,0,0,1,9.37,7,13.41,13.41,0,0,1,2,2.84,13.05,13.05,0,0,1,1.36,6.11,10.09,10.09,0,0,1-.83,4.75A13.41,13.41,0,0,1,589,212.84Z"/><path class="cls-1" d="M571.3,162.35a.52.52,0,0,0,.36,0,1,1,0,0,1,.48.11.92.92,0,0,1,.48.26,1.33,1.33,0,0,1,.37.31.57.57,0,0,0-.09.39,1.4,1.4,0,0,1-.17.94,17.76,17.76,0,0,0-.77,2.14,18.74,18.74,0,0,1-1.22,3.57q-.76,1.65-1.65,3.42a13.36,13.36,0,0,0-1.08,3.07c-.08.32-.16.63-.25.91a3.56,3.56,0,0,1-.32.5,3.32,3.32,0,0,1-.31.37l-1,.76a6.81,6.81,0,0,1-1.13.42,2.14,2.14,0,0,1-1,.07,7.19,7.19,0,0,1-1.75-.48,2.82,2.82,0,0,1-1.21-.52,2.26,2.26,0,0,1-.7-.78l-.31-.62a1.56,1.56,0,0,0,0-.51,1.39,1.39,0,0,0,.17-.51,36.47,36.47,0,0,1,6.37-8,20.07,20.07,0,0,0,3.43-4.17,10.48,10.48,0,0,1,.77-1.15,2.24,2.24,0,0,0,.39-.48Z"/><path class="cls-1" d="M622,199.75q-1.56.69-3.64-2.47a9.43,9.43,0,0,0-7.2-4.49,35.62,35.62,0,0,1-3.62-.55,17.37,17.37,0,0,0-5-.82,11.06,11.06,0,0,1-6-2.46,3.52,3.52,0,0,1-1-1.29,4.18,4.18,0,0,1-.32-1.37,9.58,9.58,0,0,1,1.8-4.14c.94-1.26,1.81-2.49,2.59-3.68a21.27,21.27,0,0,1,2.82-3.41l1.88-2.23a11.72,11.72,0,0,1,2.41-2.13c-.24-.44-.48-.93-.72-1.48a27.4,27.4,0,0,0-3.82,1.34,24.11,24.11,0,0,0-3.14,1.65,58.29,58.29,0,0,1-5.65,2.82l-1.79.79c-.77.14-1.37-.3-1.83-1.34a10.74,10.74,0,0,1-.4-1.14,2.47,2.47,0,0,1,.41-1.83q5.76-2.73,11.37-5.19,4.44-1.94,8.78-3.71a5.57,5.57,0,0,1,1.37,1.88,5.69,5.69,0,0,1,.44,1.95,4.89,4.89,0,0,1-1.76,1.32,58.74,58.74,0,0,0,2.26,6.11l.92,1.94,3.11,7.11,3.69,8.72A28.16,28.16,0,0,0,623,197l.15.34Q623.81,198.94,622,199.75Zm-8.51-10.46c-.14-.72-.25-1.24-.35-1.57l-.58-1.33a33.24,33.24,0,0,1-2.21-7.09,5.59,5.59,0,0,0-.84-1.29l-.73.39c-.54.23-2.16,2.39-4.88,6.47a1.52,1.52,0,0,0-.59,1.64q.6.57,8.25,2.79A6.93,6.93,0,0,0,613.45,189.29ZM610.62,202l-.17.08a4.78,4.78,0,0,1-2.67.34,4.1,4.1,0,0,1-2.62-1.88,2.52,2.52,0,0,1,.58-2.6,4.42,4.42,0,0,1,1.56-1.16,4.07,4.07,0,0,1,2.38-.23,3.3,3.3,0,0,1,2.28,1.91,4.3,4.3,0,0,1,.29,1A2.44,2.44,0,0,1,610.62,202Z"/><path class="cls-1" d="M639.12,193a6.94,6.94,0,0,1-1.29.35,11.11,11.11,0,0,1-9.3-2.36,22.39,22.39,0,0,1-7-9.41,23.33,23.33,0,0,1-1.53-8.27,26.62,26.62,0,0,1,1.34-8.7,1.5,1.5,0,0,0,.3-1.33,1.06,1.06,0,0,0-.63-.57l-1.11.43-2.69,1.1a2.91,2.91,0,0,1-3.29-.83,2.51,2.51,0,0,1,0-2.29,5.66,5.66,0,0,1,1.45-1l16.85-6.49a5.31,5.31,0,0,1,1.15-.18,2.69,2.69,0,0,1,.93,1.2,3.42,3.42,0,0,1,.06,2.07,34,34,0,0,1-3.62,3.09,8.14,8.14,0,0,0-2.09,2.63,21.88,21.88,0,0,0-2.66,7.86q-1,8,.66,12.4a35.06,35.06,0,0,0,2.27,4.67,10.18,10.18,0,0,0,3.86,2.29,1.28,1.28,0,0,0,.14-1.2,13.79,13.79,0,0,1-.67-3.87c.12-1.67,1.14-2.87,3.07-3.62a8,8,0,0,1,4.6-.15,6.37,6.37,0,0,1,3,2.76,8.8,8.8,0,0,1-.15,5.06A5.64,5.64,0,0,1,639.12,193Z"/><path class="cls-1" d="M670.35,182a8.37,8.37,0,0,1-1.47-.84,25.29,25.29,0,0,1-2.37-3.14q-3.28-5.49-9.17-5.61c-1.21,0-2.44-.13-3.69-.27a13.89,13.89,0,0,0-3.7.06,7.12,7.12,0,0,1-2.29-.3,5.33,5.33,0,0,1-4.64-3.38,5.74,5.74,0,0,1,.88-3.55q1.59-2.85,3.25-6.26a7.77,7.77,0,0,0-3.88-.58,9.61,9.61,0,0,1-3.57-.21,7.46,7.46,0,0,1-2.72-3.63,7.1,7.1,0,0,1-.36-2.27,11.43,11.43,0,0,1,2.2-1l20.43-6.77a12.23,12.23,0,0,1,2.23-.27,7.62,7.62,0,0,1,1.12,2.15,9.14,9.14,0,0,1,.38,1.74,7.49,7.49,0,0,0-2.34,1.37,3.16,3.16,0,0,0-.09.76q4.37,13.78,5.8,18.09a23.65,23.65,0,0,0,1.49,3.5,33.32,33.32,0,0,0,3.06,5.63,5.7,5.7,0,0,1,.77,1.54l.16.68C672.19,180.48,671.7,181.32,670.35,182Zm-7.8-11.71a28.08,28.08,0,0,0-1-4.11c-.21-.64-.44-1.26-.69-1.87s-.45-1.17-.62-1.69a21.76,21.76,0,0,1-1-4.27l-2.52-7.61a3.78,3.78,0,0,0-1.09-.1L652,151.86c-1.84.61-3.71,1.18-5.61,1.73-.08,0-.16.2-.22.53a14.64,14.64,0,0,0,4.47,2.37q2.36.76,4.6,1.54a5.17,5.17,0,0,1,.6,1.2,3.88,3.88,0,0,1-.11,2.7,21.88,21.88,0,0,0-3.7,4.88,22.26,22.26,0,0,0,5.21,1.46A40.08,40.08,0,0,1,662.55,170.24Z"/><path class="cls-1" d="M683.85,178.05a4,4,0,0,1-2.37-.41,10.72,10.72,0,0,1-2.05-1.55l-.24-.85-.69-2.89q-.13-1.2-1.19-5.37l-1.36-4.8c-.35-1.21-.66-2.45-.94-3.74l-.3-1.29Q672.9,150.73,666,148a19.17,19.17,0,0,1-1.27-3.31c-.23-.82-.29-1.32-.17-1.53a9.28,9.28,0,0,1,3.56,1.32A13.65,13.65,0,0,1,670,146.1a8.2,8.2,0,0,0,2.13,1.49,6,6,0,0,0-.13-2.79l-.25-.65-1.51-6.45a8.71,8.71,0,0,0-.18-1.59,1.78,1.78,0,0,1,1-1,1.85,1.85,0,0,1,1.39.27,24.82,24.82,0,0,0,1.49,3.18q1.56.87,4.41.06a14.21,14.21,0,0,1,2.24-.44l.24.86a10.79,10.79,0,0,1,.45,2.75,1.18,1.18,0,0,1-.57.29l-.42.13a7.38,7.38,0,0,0-1.53.85,16.78,16.78,0,0,0-2,1.52c-.48.62-.51,1.68-.08,3.17l.51,1.57,7,23.59c.21.9.56,2.18,1,3.84Z"/><path class="cls-1" d="M717.85,169.48a1.55,1.55,0,0,1-1.09-.21,9.32,9.32,0,0,1-3.3-1.94l-2.3-11.2-.47-1.7a35.15,35.15,0,0,1-.86-5.89,13.42,13.42,0,0,0-.35-2.32,16.46,16.46,0,0,0-2.23-5.12l-2.37-1.25a7.94,7.94,0,0,0-5.61-1,8.24,8.24,0,0,0-3.82,2.2,1.44,1.44,0,0,0-.31.65,1.37,1.37,0,0,0,1.32,1.18c1,.06,2.13.15,3.24.28a7.6,7.6,0,0,1,7,6.07,17.19,17.19,0,0,1,.48,3.45,19,19,0,0,1-4,7.88l-2.14,3a1.57,1.57,0,0,1-1,.76,2.35,2.35,0,0,1-1,0,17,17,0,0,1-2.5-5.7q-.21-.87-.33-1.68a2.47,2.47,0,0,1,.41-1,11.93,11.93,0,0,0,2.66-3.35c1.29-2.42,1.85-4,1.7-4.61a2.87,2.87,0,0,0-.29-.71,3.87,3.87,0,0,0-1.9-.07,5.63,5.63,0,0,0-2.88,2.36l-2.59.6a4.16,4.16,0,0,1-3.7-.59,6.25,6.25,0,0,1-2.06-3l-.42-1.78a25.94,25.94,0,0,0-.37-2.7,8.28,8.28,0,0,1,1.67-3.12l1.18-1.31a11.9,11.9,0,0,1,5.9-3.33,15.41,15.41,0,0,1,2.32-.35,20.85,20.85,0,0,1,5.07,1.21,38.2,38.2,0,0,1,5,2.85,3.34,3.34,0,0,0,.21-1.87l-.17-.42-1.4-5.7a3.79,3.79,0,0,1,.7-2.82l.25,0c.86-.2,1.36,0,1.49.56l.07.3a10.76,10.76,0,0,0,.54,1.3,2.29,2.29,0,0,0,1.83,1.32,4.82,4.82,0,0,0,1.42,0c.5-.08.84.25,1,1,.35,1.47.29,2.52-.17,3.15a11.23,11.23,0,0,0-1.77.74,23,23,0,0,0,.41,3.14l2.26,9.65a48.16,48.16,0,0,1,.83,5.44,20.17,20.17,0,0,0,.41,2.31c.14.58.35,1.33.66,2.28s.54,1.74.69,2.39q1,4.13,2,7.24A2.27,2.27,0,0,1,717.85,169.48Z"/><path class="cls-1" d="M724.57,168.32c-.93-.38-1.44-.82-1.53-1.31a2.06,2.06,0,0,0,.16-.71,1,1,0,0,1,.22-.66l.82-.79a8.93,8.93,0,0,0,2.6-4.28,15.84,15.84,0,0,0-.32-3.73l-.38-1.66c-.24-.81-.43-1.63-.59-2.46-.88-4-1.46-6.7-1.73-8.15a15.73,15.73,0,0,1,.93-9l0-.76a1,1,0,0,0,.1-.54,1.19,1.19,0,0,0-.84-.67,19.67,19.67,0,0,0-3.06.44l-2.84.6a3.11,3.11,0,0,1-.73-1.46l-.21-2.15a6.27,6.27,0,0,1,.07-1,29.55,29.55,0,0,1,3.93-1c1.07-.2,2.2-.37,3.37-.51l1.6-.37c2.6-.48,4.06.08,4.36,1.69a4.25,4.25,0,0,1-.52,2,16,16,0,0,0-1,8.93,16.78,16.78,0,0,0,1.35,4.11,56.26,56.26,0,0,1,2.19,8.19l.14.75.53,2.46a6.87,6.87,0,0,1-.33,2.38,14.8,14.8,0,0,0-.43,1.43l-1.36,2a23.61,23.61,0,0,1-2.67,3.75A8.38,8.38,0,0,1,724.57,168.32Z"/><path class="cls-1" d="M770.82,160.83q-1.74.21-2.84-3.4a9.42,9.42,0,0,0-5.69-6.35c-1.11-.45-2.24-1-3.37-1.55a16.94,16.94,0,0,0-4.73-2.21,12,12,0,0,1-5.15-4.06,3.57,3.57,0,0,1-.57-1.52,4.33,4.33,0,0,1,.08-1.41,9.59,9.59,0,0,1,3.06-3.5q1.8-1.37,3.51-2.76a22.74,22.74,0,0,1,3.79-2.48c.78-.52,1.61-1.05,2.47-1.61a12.71,12.71,0,0,1,3-1.35,16.07,16.07,0,0,1-.27-1.62,27.68,27.68,0,0,0-4.18.2,25.93,25.93,0,0,0-3.53.7,58.45,58.45,0,0,1-6.29,1.1l-2,.25c-.78-.07-1.23-.67-1.37-1.8a9.28,9.28,0,0,1-.06-1.2,2.46,2.46,0,0,1,.91-1.64q6.44-1,12.63-1.77c3.25-.4,6.48-.76,9.66-1.07a5.78,5.78,0,0,1,.79,2.25,5.94,5.94,0,0,1-.08,1.92,5.56,5.56,0,0,1-2.13.77,57.11,57.11,0,0,0,.39,6.18c.11.88.23,1.69.37,2.44l.41,3.83.55,3.87,1,9.17a31.31,31.31,0,0,0,1.48,6.24l.05.37C772.76,160,772.16,160.66,770.82,160.83Zm-5.24-12.45c.08-.73.12-1.26.12-1.6l-.18-1.45a32.93,32.93,0,0,1-.1-7.42,5.51,5.51,0,0,0-.44-1.47l-.8.16q-.88.1-6.65,4.83a1.52,1.52,0,0,0-1,1.4q.21.55,7.25,5A7,7,0,0,0,765.58,148.38Z"/><path class="cls-1" d="M778.11,160.32c-.88-.48-1.34-1-1.39-1.47a1.56,1.56,0,0,0,.23-.68,1,1,0,0,1,.29-.63l.89-.7a9,9,0,0,0,3-4,15.64,15.64,0,0,0,.06-3.74l-.21-1.69c-.15-.84-.27-1.67-.34-2.51-.47-4.05-.77-6.82-.9-8.28a15.66,15.66,0,0,1,1.84-8.9l.06-.77a.91.91,0,0,0,.15-.52c-.21-.44-.46-.69-.76-.75a18.25,18.25,0,0,0-3.1.14l-2.88.3a3,3,0,0,1-.57-1.53v-2.16a7,7,0,0,1,.17-1,29.16,29.16,0,0,1,4-.6c1.09-.09,2.23-.15,3.41-.16l1.63-.2q4-.33,4.17,2.11a4.36,4.36,0,0,1-.72,2,16,16,0,0,0-1.91,8.78,16.72,16.72,0,0,0,.93,4.23,57,57,0,0,1,1.35,8.37l.06.76.28,2.5a7.44,7.44,0,0,1-.56,2.34,13.2,13.2,0,0,0-.58,1.37l-1.55,1.85a23.84,23.84,0,0,1-3,3.45A8.35,8.35,0,0,1,778.11,160.32Z"/><path class="cls-1" d="M801.12,158.41a4,4,0,0,1-2.23-.91,11,11,0,0,1-1.66-2l0-.88,0-3c.09-.81.09-2.64,0-5.5l-.27-5c-.06-1.26-.09-2.54-.08-3.85V136q-.36-6.68-6.46-10.83a18.09,18.09,0,0,1-.5-3.52,2.73,2.73,0,0,1,.16-1.53,9.16,9.16,0,0,1,3.19,2.08,14.63,14.63,0,0,1,1.46,2,8,8,0,0,0,1.75,1.92,6,6,0,0,0,.48-2.74l-.1-.7,0-6.63a9.1,9.1,0,0,0,.17-1.58,1.77,1.77,0,0,1,1.22-.77,1.82,1.82,0,0,1,1.29.57,25.33,25.33,0,0,0,.76,3.43c.88.8,2.31,1.14,4.29,1a12.85,12.85,0,0,1,2.28.07l0,.89a11.35,11.35,0,0,1-.16,2.78,1.38,1.38,0,0,1-.62.17l-.45,0a7.63,7.63,0,0,0-1.67.5,14.47,14.47,0,0,0-2.29,1c-.6.49-.86,1.52-.78,3.07l.15,1.64,1.64,24.56c0,.93.06,2.25.15,4Z"/><path class="cls-1" d="M830.55,157.5c-1.17,0-2-1.21-2.44-3.69a9.41,9.41,0,0,0-5-6.94c-1.06-.58-2.12-1.21-3.18-1.92a17.19,17.19,0,0,0-4.45-2.72,12,12,0,0,1-4.67-4.61,3.47,3.47,0,0,1-.39-1.57,4.29,4.29,0,0,1,.23-1.39,9.48,9.48,0,0,1,3.43-3.14c1.3-.77,2.55-1.56,3.79-2.35a22.5,22.5,0,0,1,4-2c.84-.42,1.72-.87,2.64-1.32a12.73,12.73,0,0,1,3.07-1c0-.5-.07-1-.08-1.64a27.8,27.8,0,0,0-4.17-.26,25.08,25.08,0,0,0-3.59.3,59.54,59.54,0,0,1-6.37.39l-2,0c-.76-.16-1.15-.81-1.16-1.94a10.33,10.33,0,0,1,.08-1.2,2.42,2.42,0,0,1,1.08-1.53q6.51-.27,12.75-.35,4.92-.06,9.72,0a5.62,5.62,0,0,1,.53,2.33,6,6,0,0,1-.29,1.9,5.53,5.53,0,0,1-2.2.53,57.22,57.22,0,0,0-.3,6.18c0,.89.05,1.72.1,2.47l0,3.85.12,3.91-.08,9.22a31,31,0,0,0,.78,6.36v.38C832.57,156.89,831.9,157.49,830.55,157.5Zm-3.82-12.95c.16-.72.25-1.24.3-1.58l0-1.45a33.06,33.06,0,0,1,.72-7.4,5.3,5.3,0,0,0-.27-1.51l-.82.07q-.89,0-7.14,4.07a1.49,1.49,0,0,0-1.18,1.28c.08.38,2.3,2.3,6.63,5.79A7.29,7.29,0,0,0,826.73,144.55Z"/><path class="cls-1" d="M863.07,158.42a1.37,1.37,0,0,1-.43-.08c-1.82-.92-2.83-1.9-3-3q-.3-3.6-.3-5.82c0-1.47,0-3.64.11-6.5a10.26,10.26,0,0,1,0-2.15v-.31a5.81,5.81,0,0,0-2.62-5.48h-.13a2,2,0,0,0-1.8.88,33.29,33.29,0,0,0-2.61,3.62,23.19,23.19,0,0,1-3.33,4.09,3.66,3.66,0,0,1-2.74.78,7.48,7.48,0,0,1-6.3-3.73,8,8,0,0,1-1.8-5.19c.05-1.35.46-2,1.21-2a1.4,1.4,0,0,1,1,1.11.88.88,0,0,0,.1.51,2,2,0,0,0,.16.89c.67,1.17,1.31,1.76,1.94,1.79a3.25,3.25,0,0,0,.58-.07c.25-.06.78-.7,1.59-1.93l1.53-1.9a3.55,3.55,0,0,0,.92-2.3,2.85,2.85,0,0,0-.45-1.59c-.94-2.65-2.33-4.35-4.15-5.1a.75.75,0,0,1-.55-.21,5.09,5.09,0,0,0-1.44-.5,7.3,7.3,0,0,1-1.11-.62c-.87-.45-1.27-1.4-1.21-2.82a2.82,2.82,0,0,1,.16-.88v-.31a1.62,1.62,0,0,1,1.51-1.27l7,.16,1.2.11,8.26.33q2.84.18,11.41.53a5.19,5.19,0,0,1,.62,3.25,9.78,9.78,0,0,1-.18,1.51,3.34,3.34,0,0,0-1.47.44.3.3,0,0,0-.2.06,1.59,1.59,0,0,0-1.33,1.59l0,1.19v3a14.79,14.79,0,0,1-.21,2.2c-.19,4.63-.35,8-.48,10.22l.05,2-.14,3.4a47.14,47.14,0,0,0,.07,6.07,11.76,11.76,0,0,1,.22,2.22Q864.52,158.48,863.07,158.42Zm-3.24-26a1,1,0,0,0,.59-.41c.19-2.56.31-4.41.35-5.55.07-1.51-.47-2.36-1.6-2.53-.59-.06-3.21-.21-7.88-.44a.94.94,0,0,0-.83.31,1.11,1.11,0,0,0-.28.59,1,1,0,0,0,.11.44,42.29,42.29,0,0,1,.83,4.33l.46,1.29a1,1,0,0,1,.45-.24l1-.4a5.22,5.22,0,0,1,2.18-.55,7.32,7.32,0,0,1,.75.13,4.79,4.79,0,0,1,1.77,1.43,2,2,0,0,1,.36.52c.61.53,1,.86,1.22,1l.31.08Z"/><path class="cls-1" d="M876.85,159.6a4.11,4.11,0,0,1-2.08-1.22,11.4,11.4,0,0,1-1.36-2.18l.08-.88.38-2.95c.2-.78.46-2.6.79-5.44l.43-5c.11-1.25.27-2.53.46-3.82l.18-1.31q.59-6.68-4.88-11.64a20,20,0,0,1,0-3.55,2.72,2.72,0,0,1,.39-1.49,9.15,9.15,0,0,1,2.85,2.5,14.86,14.86,0,0,1,1.18,2.16,8.16,8.16,0,0,0,1.46,2.16,6,6,0,0,0,.86-2.66v-.69l.89-6.57a9.87,9.87,0,0,0,.38-1.56,1.53,1.53,0,0,1,2.52.16,26.3,26.3,0,0,0,.27,3.5c.77.92,2.13,1.46,4.1,1.63a12.49,12.49,0,0,1,2.25.39l-.08.88a11.77,11.77,0,0,1-.55,2.74,1.59,1.59,0,0,1-.64.07l-.44,0a8.59,8.59,0,0,0-1.74.26,15.63,15.63,0,0,0-2.4.71c-.67.4-1.07,1.38-1.21,2.94l-.07,1.64L879,154.91c-.11.92-.25,2.24-.4,4Z"/><path class="cls-1" d="M896.17,161.55l-.25,0a2.3,2.3,0,0,1-1.63-.7q-1.29-1-2.32-4.53l0-4.52.11-1.45c1.36-6.75,2.09-10.57,2.2-11.49l1.22-10.28-.13-1a4.88,4.88,0,0,0-2.37-.91l-.44,0a4.17,4.17,0,0,1-2.54-1.07,6.78,6.78,0,0,1-.13-2.11,4.24,4.24,0,0,1,.51-1.6,9.28,9.28,0,0,1,3-.14,8.65,8.65,0,0,1,1.73.39c.51,0,.78-.08.8-.29q.06-.56-2.86-4.79a4.74,4.74,0,0,1,0-1.13,4.43,4.43,0,0,1,1.91-3.21,55.73,55.73,0,0,1,5.86-4.45q5.22-3.26,12.62-2.38a12.88,12.88,0,0,1,4.35,1.29c4,2.67,6.71,5.22,8.25,7.65,1.24,2,1.83,3.33,1.75,4a.51.51,0,0,1-.17.36.91.91,0,0,1-.81.41c-.63-.08-1.38-.67-2.26-1.8q-4.65-5.88-8.72-6.37l-.19,0c-1.2.15-2.42.26-3.66.32a12.52,12.52,0,0,0-7.1,2.52l-3,2.51a8,8,0,0,0-2.59,4.14,4.79,4.79,0,0,0,3.45,1.94l.5.06a11.76,11.76,0,0,1,3,.93,4,4,0,0,1,.13,1.61,4.89,4.89,0,0,1-1.11,2.41A7.6,7.6,0,0,1,903,128c-.72,0-1.37,0-2,0a2.48,2.48,0,0,0-.4.4,1,1,0,0,1-.25.29q-.9,3.82-1.68,9.84-.5,4.2-1.25,9.38c-.24,2.82-.39,5.64-.43,8.47-.1,1.22-.23,2.45-.38,3.71A5.07,5.07,0,0,1,896.17,161.55Z"/><path class="cls-1" d="M925,165.8a8.43,8.43,0,0,1-.92-1.43,25.2,25.2,0,0,1-.65-3.87q-.39-6.39-5.55-9.2c-1.06-.6-2.1-1.25-3.14-2a14.69,14.69,0,0,0-3.32-1.65,7.34,7.34,0,0,1-1.89-1.32,5.35,5.35,0,0,1-2.56-5.15,5.79,5.79,0,0,1,2.42-2.74q2.72-1.8,5.76-4.06a7.9,7.9,0,0,0-3.17-2.3A9.51,9.51,0,0,1,909,130.3a7.37,7.37,0,0,1-.75-4.48,7.19,7.19,0,0,1,.73-2.18,12.46,12.46,0,0,1,2.41.14l21.25,3.42a13,13,0,0,1,2.11.78,7.91,7.91,0,0,1,0,2.43,8.3,8.3,0,0,1-.47,1.72,7.54,7.54,0,0,0-2.7.13,4.21,4.21,0,0,0-.43.64q-2.48,14.25-3.2,18.72a24.84,24.84,0,0,0-.29,3.79,33.55,33.55,0,0,0,.12,6.41,5.91,5.91,0,0,1,0,1.73l-.18.67C927.35,165.34,926.52,165.87,925,165.8Zm-9.95-5.69-.18,0a5.6,5.6,0,0,1-2.79-1.35,3.79,3.79,0,0,1-1.5-3.37,3,3,0,0,1,2.07-2.15A4.94,4.94,0,0,1,915,153a4.66,4.66,0,0,1,2.31,1.14,3.58,3.58,0,0,1,1.2,3.26,4.22,4.22,0,0,1-.28,1A3.18,3.18,0,0,1,915.09,160.11Zm8.43-8.29a28.25,28.25,0,0,0,1-4.13c.1-.66.19-1.32.25-2s.13-1.25.22-1.79a22,22,0,0,1,1.13-4.23l1.27-7.91a4.22,4.22,0,0,0-.93-.6l-3.81-.54c-1.91-.31-3.83-.67-5.77-1.06-.08,0-.23.11-.44.37a14.78,14.78,0,0,0,2.87,4.17q1.74,1.76,3.37,3.48a5,5,0,0,1,0,1.35,3.8,3.8,0,0,1-1.34,2.33,22.55,22.55,0,0,0-5.53,2.63,21.86,21.86,0,0,0,3.94,3.7A38.53,38.53,0,0,1,923.52,151.82Z"/><path class="cls-1" d="M950.47,171a2.81,2.81,0,0,1-1.69-2.84c-.22-2.12-.4-3.7-.55-4.75a7,7,0,0,0-1.21-3,27.7,27.7,0,0,0-2.86-3.39,38.24,38.24,0,0,0-5-4.62,8.3,8.3,0,0,1-3.34-2.69,10.54,10.54,0,0,1-.58-4.91,6.06,6.06,0,0,1,1.51-2.7,4.11,4.11,0,0,1,1.37-.34,62.8,62.8,0,0,0,16.1-3.44,1.22,1.22,0,0,0-.18-1,1.32,1.32,0,0,0-.76-.53l-.13,0c-.66-.1-1.38-.24-2.17-.42-1-.23-2.14-.52-3.35-.88L939,133.33c-.83-.19-1.21-1-1.15-2.4l.07-.31c.37-1.64.86-2.39,1.48-2.25l.18,0q12,2.51,19.87,4.26c4.08,1.05,8.72,2.15,13.94,3.33a5.76,5.76,0,0,1,.17,2.68,3.33,3.33,0,0,1-1.43,2.08c-1.54-.27-3-.54-4.34-.85l-7.39-1.65a2.16,2.16,0,0,0-.73.93.52.52,0,0,0,.32.59,9.48,9.48,0,0,1,2.59,2.17c.73.87,1.48,1.72,2.24,2.53a14,14,0,0,1,3.23,6.68,11.58,11.58,0,0,1-.23,4.47,13.14,13.14,0,0,1-.93,2.71,5.13,5.13,0,0,1-5.85,2.43,14.06,14.06,0,0,1-1.36-.4,3.63,3.63,0,0,1-1.93-2,3.83,3.83,0,0,1-.31-2.65,10,10,0,0,1,.63-1.64,3.11,3.11,0,0,1,2.43-1.62,9.93,9.93,0,0,1,3.41-.21,2.23,2.23,0,0,0,.44-.8,1,1,0,0,0-.36-1,8.22,8.22,0,0,0-4.54-2.83l-1.25-.22a4.31,4.31,0,0,0-1.89,2.69q-3,9.48-3.47,11.7a20.5,20.5,0,0,0-.48,4.74,8.24,8.24,0,0,1-.22,1.83C951.78,170.06,951.22,170.93,950.47,171Zm-1.65-14,.5.05,2.32-10.35a19.75,19.75,0,0,0-9.26,1.23,79.78,79.78,0,0,0,6,8.9Z"/><path class="cls-1" d="M1004.59,186.22a1.24,1.24,0,0,1-.4-.19c-1.51-1.37-2.23-2.58-2.15-3.67q.68-3.56,1.25-5.69t1.82-6.24a13.44,13.44,0,0,1,.53-2.09l.1-.29a5.81,5.81,0,0,0-1.08-6l-.12,0a2,2,0,0,0-2,.37,34.89,34.89,0,0,0-3.48,2.8,22.62,22.62,0,0,1-4.29,3.07,3.65,3.65,0,0,1-2.85,0,7.45,7.45,0,0,1-5.08-5.26,7.92,7.92,0,0,1-.37-5.48c.41-1.28,1-1.81,1.69-1.58a1.4,1.4,0,0,1,.64,1.33.87.87,0,0,0,0,.52,1.89,1.89,0,0,0-.08.9c.34,1.3.8,2,1.4,2.23a2.34,2.34,0,0,0,.57.08c.26,0,1-.46,2.05-1.43l2-1.42a3.66,3.66,0,0,0,1.49-2,2.81,2.81,0,0,0,0-1.65q-.32-4.22-2.65-6a.76.76,0,0,1-.48-.35,4.74,4.74,0,0,0-1.26-.86,7,7,0,0,1-.91-.89c-.71-.67-.85-1.68-.42-3.05a3.31,3.31,0,0,1,.39-.8l.1-.3a1.59,1.59,0,0,1,1.78-.82l6.71,2,1.13.43,7.88,2.5q2.68.93,10.87,3.53a5.3,5.3,0,0,1-.26,3.29,10,10,0,0,1-.58,1.41,3.52,3.52,0,0,0-1.54,0,.23.23,0,0,0-.2,0,1.57,1.57,0,0,0-1.69,1.18l-.37,1.14-.78,2.87a15.82,15.82,0,0,1-.79,2.06c-1.41,4.42-2.45,7.66-3.16,9.73l-.47,1.9-1,3.25a48.29,48.29,0,0,0-1.53,5.87,12.48,12.48,0,0,1-.37,2.2C1006.17,186.06,1005.51,186.52,1004.59,186.22Zm3.74-25.89a1,1,0,0,0,.67-.25c.86-2.42,1.47-4.18,1.81-5.26.46-1.44.16-2.39-.88-2.86q-.82-.33-7.48-2.51a.94.94,0,0,0-.89.08,1,1,0,0,0-.42.5,1.1,1.1,0,0,0,0,.45,43.87,43.87,0,0,1-.34,4.4l.1,1.36a1,1,0,0,1,.49-.11l1-.14a5.25,5.25,0,0,1,2.24,0,5.82,5.82,0,0,1,.69.33,4.57,4.57,0,0,1,1.33,1.84,2,2,0,0,1,.21.6,15.37,15.37,0,0,0,.92,1.29l.28.15Z"/><path class="cls-1" d="M1032.5,196.6a2.15,2.15,0,0,1-1.17-1.2,6.07,6.07,0,0,0-1.08-1.66c-.69-.87-1.51-1.93-2.47-3.21a30.34,30.34,0,0,0-2.32-2.77c-1.83-2-3.61-4.14-5.36-6.29q-1.23-1.56-2.61-3.09a2.87,2.87,0,0,1-.55-1.57,21,21,0,0,1,1.28-6c.39-1,.71-1.58,1-1.66a.39.39,0,0,1,.32-.15,2.1,2.1,0,0,1,.44.1,1.54,1.54,0,0,1,.41.5,4.11,4.11,0,0,1,.85,1.33,3.14,3.14,0,0,0,1.2,1.81,9.1,9.1,0,0,0,1.43.69l2.53,1a13.82,13.82,0,0,0,7.14.76,5.36,5.36,0,0,0,4.23-3.11l.07-.18a2,2,0,0,0,0-1.25,1.76,1.76,0,0,0-.71-1.05,5.85,5.85,0,0,0-1-.51,3.6,3.6,0,0,0-2.79.22,11.89,11.89,0,0,1-5.39,1.39,5.67,5.67,0,0,1-2.64-.33,4.37,4.37,0,0,1-3.13-4.37,2.74,2.74,0,0,1,.15-1.29c.37-1,1.91-1.89,4.61-2.7a7,7,0,0,1,3.8,0l.06,0a1.19,1.19,0,0,0,1.63-.72,1.84,1.84,0,0,0,.06-.53c-.06-.56-.5-1-1.32-1.31q-1.58-.47-8.54-3.12l-.94-.36a9.68,9.68,0,0,1,.52-2.09l.38-1a6.07,6.07,0,0,1,.6-1.15c.27-.39.55-.53.87-.41l.06,0a2.1,2.1,0,0,0,.66.39l.18.07c1.3.49,2.07.81,2.34.95.69.32,2.77,1.13,6.22,2.45l6.22,2.3,1.92.8a5.74,5.74,0,0,0,1.14.56l1.14.38c.48.14,1.34.44,2.56.9a3.19,3.19,0,0,1,1.8,1.3.05.05,0,0,0,0,.08,5.43,5.43,0,0,1,0,2.22,4.57,4.57,0,0,1-.71,1.14,1.92,1.92,0,0,1-1.3.52,7.33,7.33,0,0,1-1.5-.44l-5.77-2.2c-1-.37-1.63-.35-1.93.08a5.71,5.71,0,0,0-.53.88.45.45,0,0,0,.13.52,3.23,3.23,0,0,0,1.28,1.09,6.8,6.8,0,0,1,3.49,6.06,7.5,7.5,0,0,1-2.6,6.84,15.75,15.75,0,0,1-8.13,4.13l-.65,0a10.89,10.89,0,0,0-2,.13,1.44,1.44,0,0,0-1,.92c-.28.75,0,1.47,1,2.14a6,6,0,0,1,1.64,1.91,47.59,47.59,0,0,1,2.77,3.89l.89,1a4.73,4.73,0,0,1,1.14,2.86,2,2,0,0,1-.1.78C1034.19,196.76,1033.53,197,1032.5,196.6Z"/><path class="cls-1" d="M1048.22,203.45a6.84,6.84,0,0,1-1.17-.65,11.11,11.11,0,0,1-4.94-8.22,22.44,22.44,0,0,1,1.64-11.62,23.89,23.89,0,0,1,4.73-7,26.65,26.65,0,0,1,7.08-5.23,1.56,1.56,0,0,0,1.16-.74,1.11,1.11,0,0,0,0-.85l-1.1-.48-2.68-1.11a2.9,2.9,0,0,1-1.76-2.9,2.54,2.54,0,0,1,1.61-1.64,5.84,5.84,0,0,1,1.71.34l16.54,7.24a5.53,5.53,0,0,1,.94.69,2.7,2.7,0,0,1-.18,1.5,3.58,3.58,0,0,1-1.42,1.52,37.24,37.24,0,0,1-4.74-.35,8.12,8.12,0,0,0-3.34.39,21.84,21.84,0,0,0-7.42,3.71q-6.39,5-8.25,9.27a35.07,35.07,0,0,0-1.68,4.92,10.21,10.21,0,0,0,1.13,4.35,1.33,1.33,0,0,0,1-.76,13.83,13.83,0,0,1,2.24-3.22c1.26-1.1,2.84-1.24,4.72-.41a8,8,0,0,1,3.39,3.14,6.36,6.36,0,0,1,.2,4.09,8.78,8.78,0,0,1-3.66,3.49A5.62,5.62,0,0,1,1048.22,203.45Z"/><path class="cls-1" d="M1078.19,217.55a8.84,8.84,0,0,1-.46-1.63,25.8,25.8,0,0,1,.53-3.91q1.53-6.19-2.58-10.43c-.83-.88-1.64-1.8-2.42-2.78a13.54,13.54,0,0,0-2.68-2.56,7.48,7.48,0,0,1-1.41-1.83,5.32,5.32,0,0,1-.92-5.67,5.75,5.75,0,0,1,3.12-1.9q3.14-.92,6.71-2.17a7.86,7.86,0,0,0-2.35-3.14,9.47,9.47,0,0,1-2.38-2.66,7.34,7.34,0,0,1,.61-4.48,6.8,6.8,0,0,1,1.35-1.87,11.78,11.78,0,0,1,2.26.84l19.28,9.56a12.63,12.63,0,0,1,1.78,1.38,7.7,7.7,0,0,1-.73,2.31,8.43,8.43,0,0,1-1,1.5,7.62,7.62,0,0,0-2.63-.67,3.74,3.74,0,0,0-.59.49q-6.59,12.85-8.61,16.93a24.73,24.73,0,0,0-1.4,3.53,33.31,33.31,0,0,0-1.79,6.16,5.66,5.66,0,0,1-.53,1.63l-.36.6C1080.53,217.8,1079.58,218.05,1078.19,217.55Zm2.69-13.81a27.65,27.65,0,0,0,2.17-3.65c.29-.6.57-1.2.82-1.8s.5-1.15.74-1.64a22.08,22.08,0,0,1,2.33-3.71l3.57-7.18a4.13,4.13,0,0,0-.71-.84l-3.48-1.66c-1.73-.86-3.47-1.76-5.2-2.72-.08,0-.25,0-.54.23a15.14,15.14,0,0,0,1.51,4.84q1.14,2.17,2.19,4.32a4.74,4.74,0,0,1-.42,1.27,3.78,3.78,0,0,1-2,1.84,22.54,22.54,0,0,0-6.06.86,22.1,22.1,0,0,0,2.67,4.71A40.17,40.17,0,0,1,1080.88,203.74Z"/><path class="cls-1" d="M1090.57,224.3a3.94,3.94,0,0,1-1.41-2,10.62,10.62,0,0,1-.36-2.54l.42-.77,1.55-2.54q.74-1,2.93-4.66l2.4-4.36c.61-1.1,1.26-2.21,2-3.31l.69-1.13q3.23-5.86.25-12.62a19.69,19.69,0,0,1,1.43-3.24c.41-.74.73-1.14,1-1.21a9,9,0,0,1,1.59,3.44,14.11,14.11,0,0,1,.2,2.45,8,8,0,0,0,.47,2.56,6,6,0,0,0,1.86-2.07l.28-.64,3.47-5.65a8.88,8.88,0,0,0,1-1.26,1.78,1.78,0,0,1,1.44,0,1.83,1.83,0,0,1,.79,1.17,27,27,0,0,0-1.17,3.31q.5,1.71,3.09,3.15a11.6,11.6,0,0,1,1.9,1.26l-.42.77a11.26,11.26,0,0,1-1.62,2.28,1.32,1.32,0,0,1-.61-.2l-.39-.21a8.25,8.25,0,0,0-1.69-.46,15.27,15.27,0,0,0-2.49-.33c-.78.1-1.54.84-2.29,2.2l-.74,1.47-11.6,21.71c-.48.78-1.14,1.94-2,3.45Z"/><path class="cls-1" d="M1120.76,242.1a1.48,1.48,0,0,1-.63-.9,9.25,9.25,0,0,1-1-3.71l6.23-9.57.87-1.54a34.16,34.16,0,0,1,3.53-4.79,15.65,15.65,0,0,0,1.38-1.9,16.31,16.31,0,0,0,2-5.21l-.8-2.56a8,8,0,0,0-3.31-4.63,8.25,8.25,0,0,0-4.26-1.12,1.42,1.42,0,0,0-.68.25,1.35,1.35,0,0,0,.11,1.76c.7.78,1.41,1.61,2.1,2.48a7.61,7.61,0,0,1,.71,9.24,17.78,17.78,0,0,1-2.09,2.79,19,19,0,0,1-8.37,2.79l-3.65.65a1.55,1.55,0,0,1-1.24-.16,2.19,2.19,0,0,1-.67-.71,17,17,0,0,1,2.23-5.81c.31-.51.62-1,.94-1.42a2.43,2.43,0,0,1,1-.43,11.74,11.74,0,0,0,4.23-.51q3.93-1.22,4.46-2.08a2.47,2.47,0,0,0,.29-.71,4,4,0,0,0-1.3-1.39,5.72,5.72,0,0,0-3.71-.35l-2.26-1.38a4.17,4.17,0,0,1-2.21-3,6.14,6.14,0,0,1,.63-3.58l1-1.56c.54-.65,1.09-1.38,1.63-2.18a8.34,8.34,0,0,1,3.37-1l1.77-.1a11.8,11.8,0,0,1,6.53,1.78,16,16,0,0,1,1.89,1.38,19.79,19.79,0,0,1,2.76,4.44,38.07,38.07,0,0,1,1.56,5.54,3.27,3.27,0,0,0,1.47-1.18l.18-.41,3-5a3.82,3.82,0,0,1,2.49-1.52l.21.13c.76.46,1,.94.67,1.45l-.16.27a10.53,10.53,0,0,0-.54,1.3,2.35,2.35,0,0,0,.37,2.23,4.81,4.81,0,0,0,1,1c.41.3.42.77,0,1.42-.79,1.29-1.57,2-2.34,2.12a10.21,10.21,0,0,0-1.77-.72,22.51,22.51,0,0,0-1.92,2.52l-5.18,8.45a48.41,48.41,0,0,1-3.24,4.45c-.49.64-.93,1.28-1.33,1.92s-.69,1.2-1.13,2.09-.84,1.62-1.2,2.19c-1.46,2.41-2.69,4.6-3.65,6.58A2.23,2.23,0,0,1,1120.76,242.1Z"/><path class="cls-1" d="M1129.83,248.06c-.52-.35-.95-1.34-1.27-3a3.21,3.21,0,0,1,.55-2.52l2.11-3.15q3.65-5.46,7.72-10.63c2.26-2.94,4.2-5.59,5.79-8a24.38,24.38,0,0,0,1.53-2.62l-1.4-.86a15.79,15.79,0,0,1-1.71-1.3,32.15,32.15,0,0,1-3.34-2.38,3.53,3.53,0,0,1,.41-1.82c.33-.67.75-1.56,1.29-2.66,1-1.64.76-3.09-.86-4.38a41.8,41.8,0,0,1-5.37-4.35,8.88,8.88,0,0,1-2.89-8.62,7.45,7.45,0,0,1,.57-2.21l.43-.54q3.72-3.74,9-1.59a7.34,7.34,0,0,1,1.52.79,9.53,9.53,0,0,1,1.77,1.56q4.69,5.58,5.89,10.48a31.13,31.13,0,0,1,1.17,14.38,5.64,5.64,0,0,0,0,1.73l.89.82,1,.62,1.54,1.11a3.36,3.36,0,0,1-.64,2.08c-.72,1.08-1.42,1.58-2.07,1.5a5.73,5.73,0,0,1-1.94-.85l-.85-.42a60.28,60.28,0,0,0-4.34,5.45L1133.65,246c-1.17,1.74-2.18,2.54-3,2.37A2.1,2.1,0,0,1,1129.83,248.06Zm18.29-34.46.2-.86q1.17-4.14-.75-10.91a13.2,13.2,0,0,0-2.48-6.06c-1.1-1.14-2-2.14-2.77-3a12.25,12.25,0,0,0-1.63-1.32,3.49,3.49,0,0,0-2.4-.84,4.11,4.11,0,0,0-2.77,1.63,1.6,1.6,0,0,0-.17,1.29,2.45,2.45,0,0,0,.63,1.22l1.55.74a13.75,13.75,0,0,1,3.17,1.51,8.33,8.33,0,0,1,2.18,2.07,11.05,11.05,0,0,1,2.82,10.54,8.1,8.1,0,0,1-.73,1.87Z"/><path class="cls-1" d="M448.37,667.47l9.13-4.76c-4.2-6.64,2.45-10.65,4.53-16.65l-15.64,3.53c2.54-12.51,14.76-16.51,18.76-26.64-4,.65-7.43,1.52-10.9,1.62a5.33,5.33,0,0,1-4.16-2.54c-.49-1.18.36-3.49,1.39-4.6,2.81-3.06,6.15-5.62,9-8.61,2.42-2.52,4.49-5.38,7.63-9.21-3.52,0-5.71.26-7.82-.06-3.84-.57-4.8-3.27-2.36-6.37a22,22,0,0,1,3.24-3.07c7.65-6.48,13.57-14.15,16.63-23.85.41-1.29,1.44-2.38,3.06-5,5.34,11.17,10.68,21.06,21.84,27.11,2.71-3.85,5.54-7.59,8.07-11.53,3-4.6,4-10.08,9.26-13.69,2.72-1.88,2.88-7.5,4.11-11.46s2.24-7.65,3.82-13.08c2.07,3,3.26,4.2,3.88,5.66,1.74,4.11,3,8.4,4.89,12.46,2.2,4.84,5,9.55-3.21,12.42,2.58,3,4.22,5,6.57,7.75,5-7.29,9.92-13.38,5.17-22.06a4.58,4.58,0,0,1-.1-3.38c3.17-8.6,6.47-17.15,10-26.5,2.29,1.53,4,2.16,4.91,3.39a157.76,157.76,0,0,1,9.42,14.09c1,1.75,1.49,5.85.79,6.22-6,3.21-2.47,7.51-2.12,13L578,554.1c.06-13.21-.51-26.19,3.86-38.72,4.45,1.07,4.61,4.33,5.19,7.13A55.82,55.82,0,0,0,597,544.22c1.92,2.64,1.67,6.86,2.41,10.36l-2.18,1.23,7.9,6.09c4.35-4.24,9.19-8.51,13.51-13.25,11.83-13,23.41-26.18,35.15-39.24,7.46-8.29,16.14-15.23,26.26-19.76,22.91-10.25,39.41-27.08,52.44-48.09a266.71,266.71,0,0,1,37-46.91c5.2-5.26,9.4-11.52,13.94-17.4,2.55-3.3,4.81-6.81,7.3-10.16,7.87-10.61,9.25-10.54,19.42-2.29,17.69,14.34,30.21,31.83,35.09,54.4.88,4.05,2.43,8,3.69,11.94a99.42,99.42,0,0,0,16.82,31.28c8.24,10.54,16.43,21.12,25.21,32.41,6.2-3.93,10.88-9.67,16.07-14.78,11.23-11.06,22.2-22.37,33.58-33.27,7.24-6.93,10.57-6.23,15.87,2.54,2.3,3.81,4.22,7.86,6.33,11.79,7.89,14.67,20.13,25,34.23,33.12a273.73,273.73,0,0,1,45.94,33.66c10.15,9.08,21.57,16.75,32.59,24.81,13.4,9.81,27,19.37,41.51,29.78.86-3.62,1.64-6.87,2.46-10.3l-7.39-3c2.26-4,4.23-7.56,6.61-11.8l-6.52-3.22c2.61-4.87,5.31-9.37,7.49-14.11s3.84-9.67,5.87-14.87L1142.13,548c-.25.42-1.21,2.08-2.29,4l3.34,5.6-6.51,3.36,9.14,13.52-8,3.09a6.62,6.62,0,0,0,.24,2.34c.76,1.6,1.79,3.07,2.67,4.63,3.61,6.4,3.4,7-4.09,10.62,1.94,4.52,4.15,9,5.78,13.68a26.34,26.34,0,0,1,1.58,9.24c-.14,5.09,3.87,6.77,6.68,10.34l3.12-4c-1.72-2.08-3.32-4-5.31-6.43l7-10.43-7.85-4.44,18.5-24.8c1,1.55,2.07,2.88,2.88,4.32,3.93,7,7.76,14,11.72,21,3.12,5.5,3.09,5.68-4.08,9L1187.34,629l-8.71,1.6a7.37,7.37,0,0,0,.42,2.32c1.15,2.08,2.47,4.06,3.71,6.08,4.09,6.67,4.09,6.68-2.8,12.6,6.87,1.72,12.78,4.34,19.91,3.09,14.29-2.51,20.57-.84,29.58,4.21-.79.52-1.42,1.28-2,1.23-11.86-1.13-23.06,1.73-34.08,5.56-14.66,5.09-29.84,4.92-45,4.79-31.84-.28-63.67-.64-95.5-.88-18.75-.14-37.49-.27-56.24-.14-22.61.16-45.21.73-67.82.9-32.46.25-64.91.32-97.36.42-22.93.08-45.85,0-68.78.14-25.29.15-50.57.56-75.86.68q-41,.21-82.05.08c-25.26-.06-50.52-.29-75.79-.48-20.84-.15-41.69-.38-62.53-.5a32,32,0,0,0-7,.85C455.45,672.42,452.76,670.44,448.37,667.47ZM930.7,507.85c4.4,2.9,7.74,4.85,10.79,7.18,2.72,2.07,2.52,4.59-.12,6.67-1.38,1.1-3.12,1.74-4.61,2.7-13,8.41-26.13,16.61-38.88,25.36-7.39,5.06-14.4,11.07-17.39,19.88-5.11,15-15.28,24.21-30.08,29.36a112.64,112.64,0,0,0-20.81,10.11c-4,2.37-7.16,6.17-10.21,9.75-1.1,1.29-1.65,4.64-.81,5.61,1.28,1.47,4,2.22,6.13,2.28a14.5,14.5,0,0,0,6.86-1.68,218.28,218.28,0,0,0,19.3-11c6.67-4.46,12.84-9.66,19.23-14.54,12.87-9.8,26.72-13.59,42.73-8.35,9.11,3,18.66,3.13,28.25,1.38,28-5.12,56.22-5.44,84.49-2.42,2.93.32,6.54-.6,9,3.47-4.1.33-7.63.75-11.18.87-10.41.34-20.83.76-31.25.77-10.92,0-21.18,1.93-30.88,7.33a38.5,38.5,0,0,1-13.5,4,179,179,0,0,1-47.16.24c-10-1.32-19.22,1.44-24.6,10.88-2.66,4.67-4,10.09-6.48,16.47,8.22-.76,15-1.14,21.76-2.08,8.36-1.17,16.69-1.88,24.61,1.61,8.17,3.6,16.61,4.21,25.34,3.72,14.57-.82,28.94-.68,43.44,2.78,11.75,2.8,24.2,2.6,36.29,4.1,24.79,3.09,49.55,6.42,74.33,9.65,8.55,1.12,17.08,2.82,25.67,3.23,13.94.67,27.93.52,41.9.65.34,0,.7-.64,1.93-1.85-3.93-2.3-7.54-6.15-11.21-6.2a32.85,32.85,0,0,1-19.07-6.33,33.26,33.26,0,0,0-18.23-6.36,98.83,98.83,0,0,1-30.39-6.48c-14.69-5.44-29.92-7.36-45.56-6.93-7.11.2-14.35.31-21.36-.75a101.79,101.79,0,0,0-31.93.67c-10.84,1.77-21.82,2.67-32.76,3.8-1.31.13-2.73-.74-4.09-1.15,13.53-3.86,26.78-7.28,40.24-9.2,20.3-2.89,40.74-4.91,61.16-6.91a75.38,75.38,0,0,1,19.57.22c20.14,3.4,40.16,7.49,60.31,11.33-.06-.7.08-1.33-.16-1.7-2.79-4.23-5.54-8.48-8.48-12.6-21.74-30.36-51.48-45.91-88.62-47.53-6.84-.3-13.72.27-20.54-.14-15.12-.93-30.21-2.4-45.34-3.3-8.61-.51-17.27-.28-25.9-.5a19.59,19.59,0,0,1-4.33-1.12C954.7,548,971.71,547,989,548.33c12.15.95,24.29,2,36.46,2.66,3.79.19,7.64-.91,11.47-1.38s7.7-.92,13-1.55c-3.84-3.47-6.32-5.56-8.62-7.82A255.07,255.07,0,0,0,992,502.17c-17.58-10.35-31.43-24.42-39.12-43.83-1-2.65-2.88-5-4.88-8.36-7.09,7.1-13.66,13.47-20,20.07-16.68,17.39-32.69,35.48-50,52.16-13,12.54-27.63,23.49-41.74,34.87-27.8,22.41-56,44.28-83.49,67.1-11.86,9.87-22.23,21.54-33.28,32.38l1.18,1.68c5.94-3.14,12.44-5.55,17.66-9.61a151.53,151.53,0,0,0,20.06-18.93c6.63-7.43,14.45-13.12,22.33-19,13.31-10,26.63-20.08,38.68-31.48,9.63-9.1,19.26-17.6,31.5-22.91,8.3-3.6,15.6-8.58,20.71-16.39a17.77,17.77,0,0,1,5.73-5.52A93.11,93.11,0,0,0,909,504.83c2.61-3.9,6.38-7,9.7-10.45q7.49-7.68,15.08-15.24c1.34-1.34,2.83-2.53,4.54-4.06C941.45,487.67,937.47,497.91,930.7,507.85ZM800.31,365.14c-4.28,5.8-8.08,11.1-12,16.28-4.51,5.9-8.72,12.13-13.86,17.45A255.54,255.54,0,0,0,739,444.69c-13.51,22.52-31,40.36-54.9,52-8.37,4.08-16,10.37-22.73,16.94-10,9.77-18.9,20.58-28,31.15-12.54,14.52-26.15,27.72-43.54,36.37-14.37,7.15-28.85,14.08-43.24,21.21-5.85,2.91-11.74,5.79-17.3,9.21-6,3.71-8.07,6.54-10.66,12.78,8.51-7.27,18.13-9.93,28-12.41,6.25-1.58,12.14-4.58,18.16-7,4.11-1.67,8-4.6,12.26-5,6.71-.68,11.73-3.52,16.45-7.9,2.36-2.19,5.46-3.57,8-5.57,3.95-3.09,8.14-6,11.49-9.71a65.64,65.64,0,0,1,16.36-13.58c9.35-5.25,17.53-11.76,23.72-21,4.5-6.76,11.3-12,17-18A25.09,25.09,0,0,0,673.5,519a41.82,41.82,0,0,1,26.41-21,91.72,91.72,0,0,0,14-5.54c6.74-3.19,7.2-3.19,11.9,2.52,2.44,3,4.35,6.77,9.2,7.25-.51-10.11-1.21-19.49-1.33-28.88,0-2.81,1.19-5.79,2.42-8.43,2.25-4.84,4.88-9.5,7.45-14.19,1.37-2.5,2.32-5.74,6.89-4.71,2.45,5.07.41,13,8.69,16-.24-4.45-.26-8.29-.68-12.09-1-9.54,1.94-16,11-21,7.9-4.32,14.28-11.14,16.72-20.91.89-3.57,4.74-6.44,7.39-9.5.4-.46,1.63-.21,2.66-.3,1.55,2,3.05,4,5.63,7.42,1.09-5.9,1.52-10.28,2.84-14.37a8.05,8.05,0,0,1,4.59-4.63c1.28-.39,3.89,1.37,4.95,2.85,4.28,6,8.23,12.26,12.21,18.48.78,1.22,1.69,2.73,1.64,4.07-.51,12.95,3.56,26-.77,38.88-1.89,5.63-3.56,11.35-5,17.11a30.42,30.42,0,0,1-12.12,18.14c-6.26,4.54-12.7,8.87-18.76,13.66-8,6.33-16.16,12.59-21.79,21.41,16.69-9.08,33.65-17.71,45.25-33.59a22.38,22.38,0,0,1,4.91-5.13c6.28-4.4,9.44-10.37,10.46-17.88a18.62,18.62,0,0,1,3.24-8.1c2.68-3.69,7-3.22,8.11,1.19,2,8.28,8.15,12.8,14,17.86,6.64,5.73,6.78,12.46.19,18.19-3.1,2.69-6.92,4.6-10.55,6.61-7.75,4.31-8.14,5.68-3.08,13.91,1.74-1.07,3.47-2.17,5.23-3.21,2.82-1.66,5.6-3.39,8.52-4.87,2.37-1.2,5.53-2.84,7.12.15,1,1.86.52,5.32-.63,7.29a33.58,33.58,0,0,1-7.88,9.51,59.42,59.42,0,0,1-13.76,8.07c-10,4.1-18.3,10.14-24.23,19-10.31,15.47-21.87,29.67-37.31,40.39-3.22,2.23-6,5.17-7,9.25a127.41,127.41,0,0,0,14.31-10.69c21.45-18,42.72-36.12,64.35-53.86,13.14-10.77,24.6-23.11,36.41-35.71-4.94-5.14-9.47-9.81-13.95-14.51-17.13-17.95-30.92-38-35.73-62.75C833.06,398.46,819.24,381,800.31,365.14Z"/><path class="cls-1" d="M976.31,461.64c23.06-19.93,59.36-12.8,75.14,14.07,4,6.85,6.45,14.63,9.89,21.84a10.73,10.73,0,0,0,4.37,4.8c4.48,2.26,9.26,3.92,14,5.85,19-21.42,40.29-25.38,74.3-7.09,8.52-10.76,18.81-19.53,32.86-22.49,9.64-2,19.27-4.47,29.18-4.07.15.65.31,1.29.46,1.94-2.66.84-5.28,1.87-8,2.47-4.35,1-8.77,1.61-13.15,2.46-21.49,4.19-36.67,16.06-44.68,36.68-.75,1.93-1.59,3.82-2.42,5.72-.1.22-.41.35-1.27,1-2.37-6.77,2.21-11.8,3.36-17.38-18.61-17.51-50.78-15.79-66.19,3.86,2,4.21,8,5.88,8.76,13-5-2.94-9.29-4.83-12.83-7.67-10.32-8.29-21.56-12.37-34.84-9.22-.44.1-1-.4-2.12-.87,3.14-5,8.8-4.1,13.76-6.4-5.9-11.17-10.47-23.2-19.6-32.2-14.08-13.87-31.09-16.33-49.59-10.63-2,.61-3.88,1.49-5.83,2.24Z"/><path class="cls-1" d="M920.45,392.74c-10.8-.32-16.52-5.79-20.41-13.25s-1.34-14.85,2.79-21.13c5.34-8.11,13.91-11.2,23.33-10.48,10.8.82,17.66,10.75,16.15,21.65-.9,6.45-3.87,11.84-7.54,16.93C930.84,391.92,924.79,392.37,920.45,392.74Z"/><path class="cls-1" d="M883,447.9c.24-6,.58-6.43,10.86-12.38-9.65-14.17-22.43-16.68-38.38-9.68,8.15-15.16,28.22-10.73,44.52,8.68,11.88-.88,23.24.56,30.31,13.24-2.66-.65-5.59-.78-7.92-2-13.08-7-25.59-6.57-37.76,2.06C884.22,448.05,883.52,447.87,883,447.9Z"/><path class="cls-1" d="M501.42,489.74l-2.69-7.42a550.25,550.25,0,0,0,132.8-69.89A550.25,550.25,0,0,0,746.26,302l6.24,4.84a558.73,558.73,0,0,1-116.38,112A558.81,558.81,0,0,1,501.42,489.74Z"/><polygon class="cls-1" points="753.32 326.46 745.43 326.46 745.44 308.38 725.09 308.38 725.1 300.49 753.33 300.49 753.32 326.46"/></g></g></svg>